<?xml version="1.0" encoding="UTF-8" standalone="no"?><!DOCTYPE svg PUBLIC "-//W3C//DTD SVG 1.1//EN" "http://www.w3.org/Graphics/SVG/1.1/DTD/svg11.dtd"><svg width="25%" height="25%" viewBox="0 0 400 580" version="1.1" xmlns="http://www.w3.org/2000/svg" xmlns:xlink="http://www.w3.org/1999/xlink" xml:space="preserve" xmlns:serif="http://www.serif.com/" style="fill-rule:evenodd;clip-rule:evenodd;stroke-linecap:round;stroke-linejoin:round;stroke-miterlimit:1.5;"><path d="M254.044,386.985c0,0 18.599,2.215 17.492,-14.17c-1.107,-16.386 -19.928,-22.142 -16.607,-62.441c3.322,-40.298 21.219,-96.029 -5.535,-178.022c-11.277,-34.559 -71.739,-127.611 -155.437,-82.368c-65.54,35.427 -69.978,96.065 -54.708,152.558c4,14.8 25.438,77.718 139.29,122.446c68.198,26.792 49.599,52.698 75.505,61.997" style="fill:#6385ff;stroke:#000;stroke-width:4px;"/><path d="M78.366,104.544c23.702,-5.924 49.66,16.135 57.93,49.228c8.27,33.094 -4.259,64.77 -27.961,70.693c-23.703,5.924 -49.66,-16.135 -57.93,-49.228c-8.27,-33.094 4.259,-64.77 27.961,-70.693Z" style="fill:#6346c4;"/><path d="M86.512,99.583l0.315,0.004l0.314,0.007l0.315,0.009l0.314,0.012l0.314,0.015l0.315,0.017l0.314,0.02l0.313,0.022l0.314,0.025l0.313,0.028l0.313,0.03l0.313,0.033l0.313,0.035l0.312,0.038l0.312,0.041l0.312,0.043l0.312,0.045l0.311,0.048l0.312,0.051l0.31,0.053l0.311,0.055l0.31,0.058l0.31,0.061l0.309,0.063l0.31,0.065l0.308,0.068l0.309,0.071l0.308,0.072l0.308,0.075l0.307,0.078l0.307,0.08l0.307,0.082l0.306,0.085l0.305,0.087l0.306,0.09l0.304,0.092l0.305,0.094l0.304,0.096l0.303,0.099l0.303,0.101l0.302,0.104l0.303,0.105l0.301,0.108l0.301,0.111l0.301,0.112l0.3,0.115l0.299,0.117l0.299,0.119l0.298,0.122l0.298,0.124l0.297,0.126l0.297,0.128l0.296,0.13l0.296,0.133l0.295,0.134l0.295,0.137l0.293,0.139l0.294,0.142l0.292,0.143l0.292,0.146l0.292,0.147l0.291,0.15l0.29,0.152l0.289,0.154l0.289,0.156l0.288,0.158l0.288,0.16l0.287,0.162l0.286,0.165l0.286,0.166l0.285,0.168l0.284,0.171l0.283,0.172l0.283,0.175l0.282,0.176l0.282,0.179l0.28,0.181l0.28,0.182l0.279,0.185l0.279,0.186l0.278,0.188l0.277,0.191l0.276,0.192l0.275,0.194l0.275,0.197l0.274,0.198l0.273,0.2l0.273,0.202l0.271,0.204l0.271,0.205l0.27,0.208l0.269,0.21l0.269,0.211l0.267,0.213l0.267,0.216l0.266,0.217l0.265,0.218l0.264,0.221l0.263,0.223l0.263,0.224l0.262,0.226l0.26,0.228l0.26,0.23l0.259,0.232l0.259,0.233l0.257,0.235l0.256,0.237l0.256,0.239l0.254,0.24l0.254,0.243l0.253,0.244l0.251,0.245l0.251,0.248l0.25,0.249l0.249,0.251l0.248,0.253l0.247,0.254l0.246,0.256l0.246,0.258l0.244,0.26l0.243,0.261l0.242,0.263l0.241,0.264l0.24,0.266l0.24,0.268l0.238,0.27l0.237,0.271l0.236,0.273l0.235,0.274l0.234,0.276l0.233,0.278l0.232,0.279l0.231,0.281l0.23,0.282l0.229,0.284l0.228,0.286l0.226,0.287l0.226,0.289l0.224,0.291l0.224,0.292l0.222,0.293l0.221,0.295l0.22,0.297l0.219,0.298l0.218,0.3l0.217,0.301l0.215,0.303l0.214,0.304l0.214,0.306l0.212,0.307l0.21,0.309l0.21,0.31l0.209,0.312l0.207,0.313l0.206,0.315l0.205,0.316l0.204,0.318l0.202,0.319l0.201,0.321l0.2,0.322l0.199,0.323l0.198,0.325l0.196,0.326l0.195,0.328l0.194,0.329l0.192,0.331l0.192,0.332l0.19,0.333l0.188,0.335l0.188,0.336l0.186,0.337l0.185,0.339l0.183,0.34l0.182,0.342l0.181,0.343l0.179,0.344l0.179,0.346l0.176,0.347l0.176,0.348l0.174,0.349l0.172,0.351l0.172,0.353l0.17,0.353l0.168,0.355l0.167,0.356l0.166,0.357l0.164,0.359l0.163,0.36l0.162,0.361l0.16,0.363l0.158,0.363l0.158,0.366l0.155,0.366l0.155,0.367l0.152,0.369l0.152,0.37l0.15,0.371l0.148,0.372l0.147,0.374l0.145,0.375l0.144,0.376l0.142,0.377l0.141,0.378l0.139,0.38l0.138,0.38l0.136,0.382l0.135,0.383l0.133,0.384l0.132,0.386l0.13,0.386l0.128,0.388l0.127,0.388l0.125,0.39l0.124,0.391l0.122,0.392l0.12,0.394l0.119,0.394l0.117,0.395l0.115,0.397l0.114,0.397l0.112,0.399l0.111,0.399l0.109,0.401l0.107,0.402l0.106,0.403l0.104,0.404l0.102,0.405l0.1,0.405l0.098,0.405l0.097,0.405l0.094,0.405l0.093,0.405l0.09,0.405l0.089,0.404l0.086,0.405l0.085,0.404l0.082,0.404l0.081,0.404l0.079,0.403l0.076,0.404l0.075,0.403l0.073,0.403l0.071,0.403l0.069,0.402l0.067,0.402l0.065,0.402l0.064,0.402l0.061,0.401l0.06,0.401l0.057,0.401l0.056,0.4l0.053,0.4l0.052,0.4l0.05,0.399l0.048,0.4l0.046,0.398l0.045,0.399l0.042,0.398l0.04,0.397l0.039,0.397l0.037,0.397l0.035,0.397l0.033,0.396l0.031,0.395l0.029,0.396l0.028,0.394l0.025,0.395l0.024,0.393l0.022,0.394l0.02,0.393l0.018,0.392l0.016,0.392l0.015,0.391l0.013,0.391l0.01,0.391l0.009,0.389l0.008,0.39l0.005,0.388l0.004,0.389l0.001,0.387l0,0.387l-0.001,0.387l-0.004,0.386l-0.006,0.385l-0.007,0.385l-0.009,0.384l-0.011,0.384l-0.012,0.382l-0.015,0.383l-0.016,0.381l-0.018,0.381l-0.02,0.381l-0.021,0.379l-0.023,0.379l-0.025,0.378l-0.027,0.378l-0.029,0.377l-0.03,0.376l-0.032,0.375l-0.034,0.375l-0.035,0.374l-0.038,0.373l-0.039,0.373l-0.041,0.371l-0.042,0.371l-0.044,0.37l-0.046,0.37l-0.048,0.368l-0.05,0.368l-0.051,0.367l-0.053,0.366l-0.054,0.365l-0.057,0.365l-0.058,0.363l-0.059,0.363l-0.062,0.362l-0.063,0.361l-0.065,0.36l-0.067,0.359l-0.068,0.359l-0.07,0.357l-0.071,0.357l-0.074,0.355l-0.075,0.355l-0.076,0.354l-0.079,0.352l-0.08,0.352l-0.082,0.351l-0.083,0.35l-0.085,0.349l-0.087,0.348l-0.088,0.347l-0.09,0.345l-0.092,0.345l-0.094,0.344l-0.095,0.343l-0.096,0.342l-0.099,0.34l-0.1,0.34l-0.101,0.339l-0.104,0.337l-0.105,0.336l-0.106,0.336l-0.108,0.334l-0.11,0.333l-0.112,0.332l-0.113,0.331l-0.115,0.33l-0.116,0.328l-0.118,0.328l-0.12,0.326l-0.121,0.325l-0.123,0.324l-0.124,0.322l-0.126,0.322l-0.128,0.32l-0.13,0.319l-0.13,0.318l-0.133,0.317l-0.134,0.315l-0.136,0.314l-0.137,0.313l-0.139,0.311l-0.141,0.311l-0.142,0.309l-0.144,0.307l-0.145,0.307l-0.147,0.305l-0.149,0.304l-0.15,0.302l-0.151,0.301l-0.154,0.3l-0.155,0.298l-0.156,0.297l-0.158,0.295l-0.16,0.295l-0.161,0.292l-0.163,0.292l-0.164,0.29l-0.166,0.288l-0.167,0.287l-0.169,0.286l-0.171,0.284l-0.172,0.282l-0.174,0.282l-0.175,0.279l-0.177,0.278l-0.178,0.277l-0.18,0.275l-0.182,0.274l-0.183,0.272l-0.185,0.27l-0.186,0.269l-0.187,0.268l-0.19,0.265l-0.191,0.265l-0.192,0.262l-0.194,0.261l-0.195,0.26l-0.197,0.257l-0.199,0.256l-0.2,0.255l-0.201,0.252l-0.203,0.251l-0.205,0.25l-0.206,0.247l-0.208,0.246l-0.209,0.244l-0.211,0.243l-0.212,0.24l-0.214,0.239l-0.215,0.238l-0.217,0.235l-0.218,0.234l-0.22,0.231l-0.221,0.23l-0.223,0.228l-0.224,0.227l-0.226,0.224l-0.227,0.223l-0.229,0.22l-0.23,0.219l-0.232,0.217l-0.233,0.215l-0.235,0.213l-0.236,0.211l-0.238,0.209l-0.239,0.207l-0.24,0.205l-0.242,0.204l-0.244,0.201l-0.245,0.199l-0.246,0.197l-0.248,0.195l-0.249,0.193l-0.251,0.191l-0.252,0.189l-0.254,0.187l-0.255,0.185l-0.257,0.182l-0.257,0.181l-0.26,0.178l-0.26,0.176l-0.262,0.174l-0.264,0.172l-0.265,0.169l-0.266,0.168l-0.268,0.165l-0.269,0.163l-0.27,0.161l-0.272,0.158l-0.273,0.156l-0.275,0.154l-0.276,0.151l-0.277,0.15l-0.278,0.147l-0.28,0.144l-0.281,0.142l-0.283,0.14l-0.284,0.138l-0.285,0.135l-0.286,0.132l-0.288,0.13l-0.289,0.128l-0.29,0.126l-0.291,0.122l-0.293,0.121l-0.294,0.118l-0.295,0.115l-0.297,0.113l-0.297,0.111l-0.299,0.107l-0.3,0.106l-0.301,0.103l-0.303,0.1l-0.303,0.098l-0.305,0.095l-0.306,0.092l-0.307,0.09l-0.308,0.087l-0.31,0.085l-0.31,0.082l-0.312,0.079l-0.312,0.077l-0.313,0.073l-0.312,0.071l-0.313,0.068l-0.314,0.065l-0.313,0.063l-0.314,0.059l-0.313,0.057l-0.315,0.054l-0.314,0.051l-0.314,0.048l-0.315,0.045l-0.314,0.043l-0.315,0.04l-0.315,0.037l-0.315,0.034l-0.315,0.031l-0.314,0.029l-0.316,0.026l-0.315,0.023l-0.315,0.02l-0.315,0.018l-0.315,0.015l-0.315,0.012l-0.315,0.01l-0.315,0.006l-0.315,0.005l-0.315,0.001l-0.315,-0.001l-0.314,-0.004l-0.315,-0.007l-0.315,-0.009l-0.314,-0.012l-0.314,-0.015l-0.314,-0.017l-0.314,-0.02l-0.314,-0.022l-0.313,-0.025l-0.313,-0.028l-0.313,-0.03l-0.314,-0.033l-0.312,-0.035l-0.313,-0.038l-0.312,-0.04l-0.312,-0.043l-0.311,-0.046l-0.312,-0.048l-0.311,-0.051l-0.311,-0.053l-0.31,-0.055l-0.31,-0.058l-0.311,-0.061l-0.309,-0.063l-0.309,-0.065l-0.309,-0.068l-0.308,-0.071l-0.308,-0.072l-0.308,-0.075l-0.307,-0.078l-0.307,-0.08l-0.307,-0.082l-0.306,-0.085l-0.306,-0.087l-0.305,-0.09l-0.305,-0.091l-0.304,-0.095l-0.304,-0.096l-0.303,-0.099l-0.304,-0.101l-0.302,-0.104l-0.302,-0.105l-0.301,-0.108l-0.302,-0.111l-0.3,-0.112l-0.3,-0.115l-0.299,-0.117l-0.299,-0.119l-0.299,-0.122l-0.298,-0.124l-0.297,-0.126l-0.297,-0.128l-0.296,-0.13l-0.296,-0.133l-0.294,-0.134l-0.295,-0.137l-0.294,-0.139l-0.293,-0.142l-0.293,-0.143l-0.292,-0.145l-0.291,-0.148l-0.291,-0.15l-0.29,-0.152l-0.29,-0.154l-0.289,-0.156l-0.288,-0.158l-0.287,-0.16l-0.287,-0.162l-0.287,-0.165l-0.285,-0.166l-0.285,-0.168l-0.284,-0.171l-0.284,-0.172l-0.282,-0.175l-0.283,-0.176l-0.281,-0.179l-0.281,-0.18l-0.28,-0.183l-0.279,-0.184l-0.278,-0.187l-0.278,-0.188l-0.277,-0.191l-0.276,-0.192l-0.276,-0.194l-0.275,-0.197l-0.273,-0.198l-0.274,-0.2l-0.272,-0.202l-0.272,-0.204l-0.27,-0.205l-0.27,-0.208l-0.27,-0.21l-0.268,-0.211l-0.268,-0.213l-0.266,-0.216l-0.266,-0.217l-0.265,-0.218l-0.265,-0.221l-0.263,-0.223l-0.262,-0.224l-0.262,-0.226l-0.261,-0.228l-0.26,-0.23l-0.259,-0.232l-0.258,-0.233l-0.257,-0.235l-0.257,-0.237l-0.255,-0.239l-0.255,-0.24l-0.253,-0.243l-0.253,-0.244l-0.252,-0.245l-0.251,-0.248l-0.25,-0.249l-0.249,-0.251l-0.248,-0.253l-0.247,-0.254l-0.246,-0.256l-0.245,-0.258l-0.244,-0.259l-0.243,-0.262l-0.243,-0.263l-0.241,-0.264l-0.24,-0.266l-0.239,-0.268l-0.238,-0.27l-0.237,-0.271l-0.237,-0.273l-0.235,-0.274l-0.234,-0.276l-0.233,-0.278l-0.232,-0.279l-0.231,-0.281l-0.23,-0.282l-0.228,-0.284l-0.228,-0.286l-0.227,-0.287l-0.225,-0.289l-0.225,-0.291l-0.223,-0.292l-0.223,-0.293l-0.221,-0.295l-0.22,-0.297l-0.219,-0.298l-0.217,-0.3l-0.217,-0.301l-0.216,-0.303l-0.214,-0.304l-0.213,-0.306l-0.212,-0.307l-0.211,-0.309l-0.21,-0.31l-0.208,-0.312l-0.207,-0.313l-0.207,-0.315l-0.204,-0.316l-0.204,-0.318l-0.203,-0.319l-0.201,-0.321l-0.2,-0.322l-0.199,-0.323l-0.197,-0.325l-0.197,-0.326l-0.195,-0.328l-0.193,-0.329l-0.193,-0.331l-0.191,-0.331l-0.19,-0.334l-0.189,-0.335l-0.187,-0.336l-0.186,-0.337l-0.185,-0.339l-0.183,-0.34l-0.183,-0.342l-0.18,-0.343l-0.18,-0.344l-0.178,-0.346l-0.177,-0.347l-0.175,-0.348l-0.174,-0.349l-0.173,-0.351l-0.171,-0.352l-0.17,-0.354l-0.169,-0.355l-0.167,-0.356l-0.166,-0.357l-0.164,-0.359l-0.163,-0.36l-0.161,-0.361l-0.16,-0.363l-0.159,-0.363l-0.157,-0.365l-0.156,-0.367l-0.154,-0.367l-0.153,-0.369l-0.151,-0.37l-0.15,-0.371l-0.148,-0.372l-0.147,-0.374l-0.146,-0.375l-0.143,-0.376l-0.143,-0.377l-0.141,-0.378l-0.139,-0.38l-0.138,-0.38l-0.136,-0.382l-0.134,-0.383l-0.134,-0.384l-0.131,-0.386l-0.13,-0.386l-0.128,-0.388l-0.127,-0.388l-0.125,-0.39l-0.124,-0.391l-0.122,-0.392l-0.12,-0.393l-0.119,-0.395l-0.117,-0.395l-0.116,-0.397l-0.114,-0.397l-0.112,-0.399l-0.11,-0.399l-0.109,-0.401l-0.108,-0.402l-0.105,-0.403l-0.104,-0.404l-0.102,-0.405l-0.1,-0.405l-0.099,-0.405l-0.096,-0.405l-0.095,-0.405l-0.092,-0.405l-0.09,-0.405l-0.089,-0.404l-0.086,-0.405l-0.085,-0.404l-0.083,-0.404l-0.08,-0.404l-0.079,-0.403l-0.077,-0.404l-0.075,-0.403l-0.073,-0.403l-0.071,-0.402l-0.069,-0.403l-0.067,-0.402l-0.065,-0.402l-0.063,-0.402l-0.062,-0.401l-0.059,-0.401l-0.058,-0.401l-0.055,-0.4l-0.054,-0.4l-0.052,-0.4l-0.05,-0.399l-0.048,-0.399l-0.046,-0.399l-0.044,-0.399l-0.042,-0.398l-0.041,-0.397l-0.039,-0.397l-0.036,-0.397l-0.035,-0.397l-0.033,-0.396l-0.031,-0.395l-0.03,-0.395l-0.027,-0.395l-0.026,-0.394l-0.023,-0.394l-0.022,-0.394l-0.02,-0.393l-0.018,-0.392l-0.017,-0.392l-0.014,-0.391l-0.013,-0.391l-0.011,-0.39l-0.009,-0.39l-0.007,-0.39l-0.006,-0.388l-0.003,-0.389l-0.002,-0.387l0,-0.387l0.002,-0.387l0.004,-0.386l0.005,-0.385l0.007,-0.385l0.009,-0.384l0.011,-0.384l0.013,-0.382l0.014,-0.383l0.016,-0.381l0.018,-0.381l0.02,-0.38l0.022,-0.38l0.023,-0.379l0.025,-0.378l0.027,-0.378l0.028,-0.377l0.031,-0.376l0.032,-0.375l0.033,-0.375l0.036,-0.374l0.037,-0.373l0.039,-0.373l0.041,-0.371l0.043,-0.371l0.044,-0.37l0.046,-0.37l0.048,-0.368l0.049,-0.368l0.051,-0.367l0.053,-0.366l0.055,-0.365l0.056,-0.365l0.058,-0.363l0.06,-0.363l0.061,-0.362l0.064,-0.361l0.065,-0.36l0.066,-0.359l0.068,-0.359l0.07,-0.357l0.072,-0.357l0.073,-0.355l0.075,-0.355l0.077,-0.353l0.078,-0.353l0.08,-0.352l0.082,-0.351l0.084,-0.35l0.085,-0.349l0.086,-0.348l0.089,-0.346l0.09,-0.346l0.092,-0.345l0.093,-0.344l0.095,-0.343l0.097,-0.342l0.098,-0.34l0.1,-0.34l0.102,-0.339l0.103,-0.337l0.105,-0.336l0.107,-0.336l0.108,-0.334l0.11,-0.333l0.111,-0.332l0.113,-0.331l0.115,-0.33l0.117,-0.328l0.118,-0.328l0.119,-0.326l0.122,-0.325l0.122,-0.324l0.125,-0.322l0.126,-0.322l0.128,-0.32l0.129,-0.319l0.131,-0.318l0.133,-0.317l0.134,-0.315l0.136,-0.314l0.137,-0.313l0.139,-0.311l0.14,-0.311l0.143,-0.309l0.143,-0.307l0.146,-0.307l0.147,-0.305l0.148,-0.304l0.15,-0.302l0.152,-0.301l0.153,-0.3l0.155,-0.298l0.157,-0.297l0.158,-0.295l0.159,-0.295l0.161,-0.292l0.163,-0.292l0.165,-0.29l0.165,-0.288l0.168,-0.287l0.169,-0.286l0.171,-0.284l0.172,-0.282l0.173,-0.282l0.176,-0.279l0.177,-0.278l0.178,-0.277l0.18,-0.275l0.181,-0.274l0.184,-0.272l0.184,-0.27l0.186,-0.269l0.188,-0.268l0.189,-0.265l0.191,-0.265l0.192,-0.262l0.194,-0.261l0.196,-0.259l0.197,-0.258l0.198,-0.256l0.2,-0.255l0.202,-0.252l0.203,-0.251l0.205,-0.25l0.206,-0.247l0.207,-0.246l0.21,-0.244l0.21,-0.243l0.212,-0.24l0.214,-0.239l0.215,-0.237l0.217,-0.236l0.218,-0.233l0.22,-0.232l0.222,-0.23l0.222,-0.228l0.225,-0.227l0.225,-0.224l0.228,-0.223l0.228,-0.22l0.231,-0.219l0.231,-0.217l0.234,-0.215l0.234,-0.213l0.237,-0.211l0.237,-0.209l0.239,-0.207l0.241,-0.205l0.242,-0.204l0.243,-0.201l0.245,-0.199l0.247,-0.197l0.248,-0.195l0.249,-0.193l0.251,-0.191l0.252,-0.189l0.254,-0.187l0.255,-0.185l0.256,-0.182l0.258,-0.181l0.259,-0.178l0.261,-0.176l0.262,-0.174l0.264,-0.172l0.264,-0.169l0.267,-0.168l0.267,-0.165l0.269,-0.163l0.271,-0.161l0.272,-0.158l0.273,-0.156l0.274,-0.154l0.276,-0.151l0.277,-0.15l0.279,-0.146l0.28,-0.145l0.281,-0.142l0.282,-0.14l0.284,-0.137l0.285,-0.135l0.287,-0.133l0.287,-0.13l0.289,-0.128l0.29,-0.125l0.292,-0.123l0.293,-0.121l0.293,-0.118l0.296,-0.115l0.296,-0.113l0.298,-0.111l0.299,-0.107l0.3,-0.106l0.301,-0.103l0.302,-0.1l0.304,-0.097l0.305,-0.096l0.306,-0.092l0.307,-0.09l0.308,-0.087l0.309,-0.085l0.311,-0.082l0.311,-0.079l0.313,-0.077l0.312,-0.073l0.313,-0.071l0.313,-0.068l0.313,-0.065l0.314,-0.063l0.313,-0.059l0.314,-0.057l0.314,-0.054l0.314,-0.051l0.315,-0.048l0.314,-0.045l0.315,-0.043l0.314,-0.039l0.315,-0.037l0.315,-0.035l0.315,-0.031l0.315,-0.029l0.315,-0.026l0.315,-0.023l0.315,-0.02l0.315,-0.018l0.315,-0.015l0.316,-0.012l0.315,-0.01l0.315,-0.006l0.314,-0.005l0.315,-0.001l0.315,0.001Zm-0.595,4l-0.28,0.004l-0.281,0.006l-0.281,0.009l-0.28,0.01l-0.281,0.014l-0.28,0.015l-0.281,0.019l-0.28,0.02l-0.281,0.023l-0.28,0.026l-0.28,0.028l-0.28,0.03l-0.28,0.033l-0.28,0.036l-0.28,0.037l-0.28,0.041l-0.279,0.043l-0.28,0.045l-0.279,0.048l-0.279,0.05l-0.279,0.053l-0.279,0.055l-0.278,0.058l-0.279,0.061l-0.278,0.063l-0.278,0.065l-0.278,0.069l-0.277,0.07l-0.276,0.073l-0.276,0.075l-0.274,0.078l-0.273,0.08l-0.272,0.082l-0.271,0.085l-0.27,0.087l-0.269,0.089l-0.268,0.091l-0.267,0.094l-0.265,0.096l-0.265,0.098l-0.264,0.1l-0.262,0.103l-0.262,0.105l-0.26,0.107l-0.26,0.11l-0.258,0.111l-0.257,0.114l-0.256,0.116l-0.255,0.118l-0.254,0.12l-0.253,0.123l-0.251,0.124l-0.251,0.127l-0.249,0.129l-0.249,0.131l-0.247,0.133l-0.246,0.135l-0.245,0.137l-0.244,0.139l-0.243,0.142l-0.241,0.143l-0.24,0.146l-0.24,0.148l-0.238,0.149l-0.237,0.152l-0.236,0.154l-0.234,0.156l-0.234,0.157l-0.232,0.16l-0.231,0.162l-0.23,0.164l-0.229,0.165l-0.228,0.168l-0.226,0.17l-0.226,0.171l-0.224,0.174l-0.223,0.175l-0.221,0.178l-0.221,0.179l-0.219,0.181l-0.218,0.183l-0.217,0.185l-0.216,0.187l-0.214,0.189l-0.214,0.19l-0.212,0.193l-0.21,0.194l-0.21,0.196l-0.208,0.198l-0.207,0.2l-0.206,0.202l-0.205,0.203l-0.203,0.205l-0.202,0.207l-0.201,0.209l-0.2,0.21l-0.198,0.213l-0.197,0.214l-0.196,0.215l-0.195,0.218l-0.193,0.219l-0.192,0.221l-0.191,0.223l-0.189,0.224l-0.188,0.226l-0.187,0.228l-0.186,0.229l-0.184,0.231l-0.183,0.233l-0.182,0.234l-0.18,0.236l-0.179,0.237l-0.178,0.24l-0.176,0.24l-0.175,0.243l-0.174,0.244l-0.172,0.245l-0.171,0.247l-0.17,0.249l-0.169,0.25l-0.167,0.252l-0.165,0.254l-0.165,0.255l-0.163,0.256l-0.161,0.258l-0.161,0.259l-0.159,0.261l-0.157,0.263l-0.157,0.264l-0.154,0.265l-0.154,0.267l-0.152,0.268l-0.151,0.27l-0.149,0.271l-0.148,0.273l-0.146,0.274l-0.145,0.275l-0.144,0.277l-0.142,0.278l-0.141,0.28l-0.14,0.28l-0.138,0.283l-0.136,0.283l-0.136,0.286l-0.134,0.286l-0.132,0.288l-0.131,0.289l-0.129,0.29l-0.128,0.292l-0.127,0.293l-0.125,0.294l-0.124,0.295l-0.122,0.297l-0.121,0.298l-0.119,0.299l-0.118,0.301l-0.117,0.302l-0.115,0.303l-0.113,0.304l-0.112,0.305l-0.111,0.307l-0.109,0.308l-0.107,0.309l-0.106,0.31l-0.105,0.311l-0.103,0.313l-0.101,0.313l-0.101,0.315l-0.098,0.316l-0.097,0.317l-0.096,0.318l-0.094,0.319l-0.092,0.321l-0.091,0.321l-0.09,0.323l-0.087,0.323l-0.087,0.325l-0.085,0.326l-0.083,0.326l-0.082,0.328l-0.08,0.329l-0.078,0.33l-0.078,0.331l-0.075,0.331l-0.074,0.333l-0.072,0.334l-0.071,0.335l-0.069,0.336l-0.068,0.336l-0.066,0.338l-0.065,0.338l-0.063,0.34l-0.061,0.34l-0.06,0.342l-0.058,0.342l-0.056,0.343l-0.055,0.344l-0.054,0.345l-0.051,0.346l-0.05,0.346l-0.049,0.348l-0.047,0.348l-0.045,0.349l-0.043,0.35l-0.042,0.351l-0.041,0.352l-0.038,0.352l-0.037,0.354l-0.036,0.354l-0.034,0.354l-0.032,0.356l-0.03,0.356l-0.029,0.357l-0.027,0.358l-0.025,0.358l-0.024,0.36l-0.022,0.36l-0.021,0.36l-0.019,0.362l-0.017,0.362l-0.015,0.362l-0.014,0.364l-0.012,0.364l-0.01,0.364l-0.009,0.366l-0.006,0.366l-0.006,0.366l-0.003,0.368l-0.002,0.367l0,0.369l0.002,0.369l0.003,0.369l0.005,0.371l0.007,0.37l0.009,0.372l0.01,0.371l0.012,0.373l0.014,0.373l0.016,0.373l0.017,0.374l0.019,0.374l0.021,0.375l0.023,0.376l0.024,0.376l0.026,0.376l0.028,0.377l0.03,0.377l0.031,0.378l0.034,0.378l0.035,0.379l0.036,0.379l0.039,0.379l0.041,0.38l0.042,0.38l0.044,0.381l0.046,0.381l0.047,0.381l0.05,0.382l0.051,0.382l0.053,0.382l0.055,0.383l0.057,0.383l0.059,0.383l0.06,0.384l0.062,0.384l0.064,0.384l0.066,0.384l0.068,0.385l0.07,0.385l0.071,0.385l0.074,0.386l0.075,0.386l0.077,0.385l0.079,0.387l0.081,0.386l0.083,0.387l0.084,0.386l0.087,0.387l0.088,0.388l0.09,0.387l0.093,0.387l0.094,0.388l0.096,0.388l0.097,0.387l0.1,0.386l0.101,0.386l0.102,0.384l0.104,0.383l0.106,0.382l0.107,0.381l0.109,0.38l0.11,0.379l0.112,0.378l0.114,0.377l0.115,0.376l0.117,0.375l0.118,0.373l0.119,0.373l0.122,0.371l0.122,0.371l0.124,0.369l0.126,0.368l0.127,0.367l0.129,0.366l0.13,0.364l0.131,0.364l0.133,0.362l0.135,0.361l0.136,0.361l0.137,0.358l0.139,0.358l0.14,0.357l0.142,0.355l0.143,0.354l0.144,0.353l0.146,0.352l0.147,0.351l0.148,0.349l0.15,0.348l0.152,0.347l0.152,0.346l0.154,0.344l0.156,0.343l0.156,0.342l0.158,0.341l0.159,0.339l0.161,0.338l0.162,0.337l0.163,0.336l0.165,0.334l0.165,0.333l0.168,0.332l0.168,0.33l0.169,0.329l0.171,0.328l0.172,0.326l0.174,0.326l0.174,0.323l0.176,0.323l0.177,0.321l0.178,0.319l0.18,0.319l0.18,0.317l0.182,0.315l0.183,0.315l0.184,0.312l0.186,0.312l0.186,0.31l0.188,0.309l0.189,0.307l0.19,0.306l0.191,0.304l0.192,0.303l0.194,0.301l0.194,0.301l0.196,0.298l0.196,0.297l0.198,0.296l0.199,0.294l0.2,0.293l0.201,0.291l0.202,0.29l0.203,0.289l0.204,0.287l0.205,0.285l0.207,0.284l0.207,0.282l0.208,0.281l0.209,0.279l0.211,0.278l0.211,0.276l0.212,0.275l0.214,0.273l0.214,0.271l0.215,0.27l0.216,0.269l0.217,0.267l0.219,0.265l0.219,0.264l0.22,0.262l0.22,0.26l0.222,0.259l0.223,0.258l0.224,0.255l0.224,0.254l0.226,0.253l0.226,0.25l0.227,0.25l0.228,0.247l0.229,0.246l0.23,0.244l0.231,0.243l0.231,0.241l0.232,0.239l0.233,0.237l0.234,0.236l0.235,0.234l0.236,0.233l0.236,0.23l0.237,0.229l0.238,0.227l0.239,0.226l0.239,0.224l0.241,0.222l0.241,0.22l0.242,0.219l0.242,0.217l0.243,0.215l0.244,0.213l0.245,0.212l0.245,0.209l0.246,0.208l0.247,0.206l0.248,0.205l0.248,0.202l0.249,0.201l0.249,0.199l0.251,0.197l0.25,0.195l0.252,0.194l0.252,0.191l0.253,0.19l0.253,0.188l0.254,0.186l0.255,0.184l0.255,0.183l0.256,0.18l0.257,0.179l0.257,0.176l0.257,0.175l0.258,0.173l0.259,0.171l0.259,0.169l0.26,0.167l0.261,0.165l0.261,0.164l0.261,0.161l0.262,0.159l0.263,0.158l0.263,0.155l0.263,0.154l0.264,0.151l0.265,0.15l0.265,0.148l0.265,0.145l0.266,0.144l0.266,0.141l0.267,0.14l0.267,0.138l0.268,0.135l0.268,0.134l0.269,0.131l0.268,0.13l0.27,0.127l0.27,0.126l0.27,0.123l0.27,0.121l0.271,0.12l0.271,0.117l0.272,0.115l0.272,0.113l0.272,0.111l0.273,0.109l0.273,0.106l0.273,0.105l0.274,0.103l0.274,0.1l0.274,0.098l0.275,0.096l0.275,0.094l0.275,0.092l0.276,0.09l0.275,0.087l0.276,0.086l0.276,0.083l0.277,0.081l0.277,0.079l0.277,0.077l0.277,0.074l0.277,0.072l0.278,0.07l0.278,0.068l0.278,0.066l0.278,0.063l0.278,0.062l0.279,0.059l0.279,0.056l0.279,0.055l0.279,0.052l0.279,0.05l0.28,0.048l0.279,0.045l0.28,0.043l0.279,0.041l0.28,0.039l0.28,0.036l0.28,0.034l0.281,0.032l0.28,0.029l0.28,0.027l0.281,0.025l0.28,0.022l0.281,0.02l0.28,0.018l0.281,0.015l0.281,0.013l0.28,0.011l0.281,0.008l0.281,0.006l0.281,0.004l0.28,0.001l0.281,-0.001l0.281,-0.004l0.281,-0.006l0.28,-0.008l0.281,-0.011l0.28,-0.014l0.281,-0.015l0.28,-0.019l0.281,-0.02l0.28,-0.023l0.281,-0.026l0.28,-0.028l0.28,-0.03l0.28,-0.033l0.28,-0.035l0.28,-0.038l0.279,-0.041l0.28,-0.043l0.279,-0.045l0.279,-0.048l0.28,-0.05l0.278,-0.053l0.279,-0.055l0.279,-0.058l0.278,-0.061l0.279,-0.063l0.278,-0.065l0.278,-0.069l0.277,-0.07l0.276,-0.073l0.275,-0.075l0.274,-0.078l0.273,-0.08l0.273,-0.082l0.271,-0.085l0.27,-0.087l0.269,-0.089l0.267,-0.091l0.267,-0.094l0.266,-0.096l0.265,-0.098l0.263,-0.1l0.263,-0.103l0.261,-0.105l0.261,-0.107l0.259,-0.109l0.258,-0.112l0.258,-0.114l0.256,-0.116l0.255,-0.118l0.254,-0.12l0.252,-0.122l0.252,-0.125l0.251,-0.127l0.249,-0.129l0.248,-0.131l0.247,-0.133l0.247,-0.135l0.245,-0.137l0.243,-0.139l0.243,-0.142l0.242,-0.143l0.24,-0.146l0.239,-0.148l0.238,-0.149l0.237,-0.152l0.236,-0.154l0.235,-0.155l0.233,-0.158l0.233,-0.16l0.231,-0.162l0.23,-0.163l0.229,-0.166l0.227,-0.168l0.227,-0.17l0.225,-0.171l0.224,-0.174l0.223,-0.175l0.222,-0.177l0.22,-0.18l0.22,-0.181l0.218,-0.183l0.217,-0.185l0.215,-0.187l0.215,-0.189l0.213,-0.19l0.212,-0.193l0.211,-0.194l0.21,-0.196l0.208,-0.198l0.207,-0.2l0.206,-0.201l0.205,-0.204l0.203,-0.205l0.202,-0.207l0.201,-0.209l0.2,-0.21l0.198,-0.212l0.197,-0.214l0.196,-0.216l0.194,-0.218l0.194,-0.219l0.192,-0.221l0.19,-0.222l0.19,-0.225l0.188,-0.226l0.187,-0.227l0.185,-0.23l0.185,-0.231l0.183,-0.232l0.181,-0.235l0.181,-0.236l0.179,-0.237l0.177,-0.24l0.177,-0.24l0.175,-0.243l0.174,-0.244l0.172,-0.245l0.171,-0.247l0.17,-0.249l0.168,-0.25l0.167,-0.252l0.166,-0.254l0.164,-0.254l0.163,-0.257l0.162,-0.258l0.16,-0.259l0.159,-0.261l0.158,-0.263l0.156,-0.264l0.155,-0.265l0.153,-0.267l0.152,-0.268l0.151,-0.27l0.149,-0.271l0.148,-0.272l0.147,-0.274l0.145,-0.276l0.144,-0.277l0.142,-0.278l0.141,-0.279l0.139,-0.281l0.138,-0.283l0.137,-0.283l0.135,-0.285l0.134,-0.287l0.132,-0.288l0.131,-0.289l0.13,-0.29l0.128,-0.292l0.127,-0.292l0.125,-0.295l0.123,-0.295l0.123,-0.297l0.121,-0.298l0.119,-0.299l0.118,-0.301l0.116,-0.302l0.115,-0.303l0.114,-0.304l0.112,-0.305l0.11,-0.307l0.109,-0.308l0.108,-0.309l0.106,-0.31l0.104,-0.311l0.103,-0.313l0.102,-0.313l0.1,-0.315l0.099,-0.316l0.097,-0.317l0.095,-0.318l0.094,-0.319l0.093,-0.321l0.091,-0.321l0.089,-0.323l0.088,-0.323l0.086,-0.325l0.085,-0.326l0.083,-0.326l0.082,-0.328l0.08,-0.329l0.079,-0.33l0.077,-0.331l0.076,-0.331l0.074,-0.333l0.072,-0.334l0.071,-0.335l0.069,-0.335l0.068,-0.337l0.066,-0.338l0.064,-0.338l0.063,-0.34l0.061,-0.34l0.06,-0.342l0.058,-0.342l0.057,-0.343l0.055,-0.344l0.053,-0.345l0.052,-0.346l0.05,-0.346l0.048,-0.348l0.047,-0.348l0.045,-0.349l0.044,-0.35l0.042,-0.351l0.04,-0.352l0.039,-0.352l0.037,-0.353l0.035,-0.354l0.034,-0.355l0.032,-0.356l0.031,-0.356l0.028,-0.357l0.028,-0.358l0.025,-0.358l0.024,-0.36l0.022,-0.36l0.02,-0.36l0.019,-0.362l0.017,-0.362l0.016,-0.362l0.013,-0.364l0.012,-0.364l0.011,-0.364l0.008,-0.366l0.007,-0.366l0.005,-0.366l0.004,-0.367l0.001,-0.368l0,-0.369l-0.001,-0.369l-0.004,-0.369l-0.005,-0.37l-0.007,-0.371l-0.008,-0.371l-0.011,-0.372l-0.012,-0.373l-0.014,-0.373l-0.015,-0.373l-0.017,-0.374l-0.02,-0.374l-0.02,-0.375l-0.023,-0.376l-0.024,-0.376l-0.027,-0.376l-0.028,-0.377l-0.029,-0.377l-0.032,-0.378l-0.033,-0.378l-0.035,-0.379l-0.037,-0.379l-0.039,-0.379l-0.04,-0.38l-0.042,-0.38l-0.044,-0.381l-0.046,-0.381l-0.048,-0.381l-0.049,-0.382l-0.052,-0.382l-0.053,-0.382l-0.055,-0.383l-0.056,-0.383l-0.059,-0.383l-0.06,-0.384l-0.063,-0.383l-0.064,-0.385l-0.066,-0.384l-0.068,-0.385l-0.069,-0.385l-0.072,-0.385l-0.073,-0.386l-0.075,-0.385l-0.077,-0.386l-0.079,-0.387l-0.081,-0.386l-0.083,-0.387l-0.085,-0.386l-0.086,-0.387l-0.089,-0.387l-0.09,-0.388l-0.092,-0.387l-0.094,-0.388l-0.096,-0.388l-0.098,-0.387l-0.099,-0.386l-0.101,-0.385l-0.103,-0.385l-0.104,-0.383l-0.105,-0.382l-0.108,-0.381l-0.108,-0.38l-0.111,-0.379l-0.112,-0.378l-0.113,-0.377l-0.115,-0.376l-0.117,-0.375l-0.118,-0.373l-0.12,-0.373l-0.121,-0.371l-0.123,-0.37l-0.124,-0.37l-0.125,-0.368l-0.128,-0.367l-0.128,-0.366l-0.13,-0.364l-0.132,-0.364l-0.133,-0.362l-0.134,-0.361l-0.136,-0.361l-0.138,-0.358l-0.138,-0.358l-0.14,-0.357l-0.142,-0.355l-0.143,-0.354l-0.144,-0.353l-0.146,-0.352l-0.147,-0.351l-0.149,-0.349l-0.15,-0.348l-0.151,-0.347l-0.153,-0.346l-0.154,-0.344l-0.155,-0.343l-0.157,-0.342l-0.158,-0.341l-0.159,-0.339l-0.16,-0.338l-0.162,-0.337l-0.164,-0.336l-0.164,-0.334l-0.166,-0.333l-0.167,-0.332l-0.168,-0.33l-0.17,-0.329l-0.171,-0.328l-0.172,-0.326l-0.173,-0.325l-0.175,-0.324l-0.176,-0.323l-0.177,-0.321l-0.178,-0.319l-0.179,-0.319l-0.181,-0.317l-0.182,-0.315l-0.183,-0.315l-0.184,-0.312l-0.185,-0.312l-0.187,-0.31l-0.188,-0.308l-0.188,-0.308l-0.19,-0.306l-0.191,-0.304l-0.193,-0.303l-0.193,-0.301l-0.194,-0.3l-0.196,-0.299l-0.197,-0.297l-0.197,-0.296l-0.199,-0.294l-0.2,-0.293l-0.201,-0.291l-0.202,-0.29l-0.203,-0.289l-0.205,-0.286l-0.205,-0.286l-0.206,-0.284l-0.207,-0.282l-0.209,-0.281l-0.209,-0.279l-0.21,-0.278l-0.211,-0.276l-0.213,-0.275l-0.213,-0.273l-0.214,-0.271l-0.216,-0.27l-0.216,-0.269l-0.217,-0.267l-0.218,-0.265l-0.219,-0.264l-0.22,-0.262l-0.221,-0.26l-0.222,-0.259l-0.222,-0.257l-0.224,-0.256l-0.225,-0.254l-0.225,-0.253l-0.226,-0.25l-0.228,-0.25l-0.228,-0.247l-0.229,-0.246l-0.229,-0.244l-0.231,-0.243l-0.231,-0.24l-0.233,-0.24l-0.233,-0.237l-0.234,-0.236l-0.235,-0.234l-0.235,-0.232l-0.237,-0.231l-0.237,-0.229l-0.238,-0.227l-0.238,-0.226l-0.24,-0.224l-0.24,-0.222l-0.241,-0.22l-0.242,-0.219l-0.242,-0.217l-0.244,-0.215l-0.244,-0.213l-0.244,-0.211l-0.246,-0.21l-0.246,-0.208l-0.247,-0.206l-0.247,-0.205l-0.248,-0.202l-0.249,-0.201l-0.25,-0.199l-0.25,-0.197l-0.251,-0.195l-0.251,-0.194l-0.253,-0.191l-0.252,-0.19l-0.254,-0.188l-0.254,-0.186l-0.254,-0.184l-0.256,-0.183l-0.256,-0.18l-0.256,-0.179l-0.257,-0.176l-0.258,-0.175l-0.258,-0.173l-0.259,-0.171l-0.259,-0.169l-0.26,-0.167l-0.26,-0.165l-0.261,-0.164l-0.262,-0.161l-0.262,-0.159l-0.262,-0.158l-0.263,-0.155l-0.264,-0.154l-0.264,-0.151l-0.264,-0.15l-0.265,-0.147l-0.265,-0.146l-0.266,-0.144l-0.267,-0.141l-0.266,-0.14l-0.268,-0.138l-0.267,-0.135l-0.268,-0.134l-0.269,-0.131l-0.269,-0.13l-0.269,-0.127l-0.27,-0.126l-0.27,-0.123l-0.271,-0.121l-0.271,-0.12l-0.271,-0.117l-0.271,-0.115l-0.272,-0.113l-0.273,-0.111l-0.273,-0.109l-0.273,-0.106l-0.273,-0.105l-0.274,-0.103l-0.274,-0.1l-0.274,-0.098l-0.274,-0.096l-0.275,-0.094l-0.276,-0.092l-0.275,-0.09l-0.276,-0.087l-0.276,-0.086l-0.276,-0.083l-0.276,-0.081l-0.277,-0.079l-0.277,-0.077l-0.277,-0.074l-0.278,-0.072l-0.277,-0.07l-0.278,-0.068l-0.278,-0.066l-0.278,-0.063l-0.279,-0.062l-0.279,-0.059l-0.278,-0.056l-0.279,-0.055l-0.279,-0.052l-0.28,-0.05l-0.279,-0.048l-0.279,-0.045l-0.28,-0.043l-0.28,-0.041l-0.28,-0.039l-0.28,-0.036l-0.28,-0.034l-0.28,-0.032l-0.28,-0.029l-0.281,-0.027l-0.28,-0.025l-0.281,-0.022l-0.28,-0.02l-0.281,-0.018l-0.28,-0.015l-0.281,-0.013l-0.281,-0.011l-0.281,-0.008l-0.28,-0.006l-0.281,-0.004l-0.281,-0.001l-0.281,0.001Z"/><path d="M148.633,67.185c20.472,-13.333 52.206,-0.951 70.822,27.633c18.615,28.584 17.107,62.615 -3.365,75.947c-20.473,13.333 -52.207,0.951 -70.822,-27.632c-18.616,-28.584 -17.108,-62.615 3.365,-75.948Z" style="fill:#6346c4;"/><path d="M167.777,57.823l0.32,0.004l0.321,0.006l0.321,0.008l0.321,0.011l0.321,0.013l0.321,0.015l0.322,0.017l0.322,0.02l0.322,0.022l0.322,0.025l0.323,0.026l0.323,0.029l0.323,0.031l0.322,0.033l0.324,0.036l0.323,0.038l0.323,0.04l0.324,0.042l0.324,0.045l0.323,0.046l0.324,0.049l0.324,0.051l0.324,0.053l0.324,0.056l0.324,0.057l0.324,0.06l0.324,0.062l0.325,0.064l0.324,0.066l0.324,0.069l0.325,0.07l0.324,0.073l0.324,0.075l0.324,0.077l0.325,0.079l0.324,0.081l0.324,0.083l0.324,0.086l0.324,0.087l0.324,0.09l0.324,0.092l0.324,0.093l0.323,0.096l0.324,0.098l0.323,0.1l0.324,0.102l0.323,0.104l0.323,0.106l0.323,0.109l0.323,0.11l0.323,0.112l0.322,0.114l0.323,0.117l0.322,0.118l0.322,0.121l0.321,0.122l0.322,0.124l0.321,0.127l0.322,0.128l0.32,0.131l0.321,0.132l0.321,0.134l0.32,0.137l0.32,0.138l0.319,0.141l0.32,0.142l0.319,0.144l0.319,0.146l0.318,0.149l0.318,0.15l0.318,0.152l0.318,0.154l0.317,0.156l0.317,0.158l0.316,0.16l0.317,0.161l0.316,0.164l0.315,0.166l0.315,0.167l0.315,0.17l0.314,0.171l0.314,0.173l0.314,0.175l0.313,0.177l0.312,0.179l0.313,0.181l0.311,0.183l0.312,0.184l0.311,0.187l0.31,0.188l0.31,0.19l0.309,0.192l0.309,0.194l0.309,0.196l0.308,0.198l0.307,0.199l0.307,0.201l0.307,0.203l0.306,0.205l0.305,0.207l0.305,0.209l0.304,0.21l0.304,0.212l0.303,0.214l0.302,0.216l0.302,0.218l0.301,0.22l0.301,0.221l0.3,0.223l0.3,0.225l0.298,0.227l0.298,0.228l0.298,0.23l0.297,0.232l0.296,0.234l0.296,0.236l0.294,0.237l0.295,0.239l0.293,0.241l0.293,0.243l0.292,0.244l0.291,0.246l0.291,0.248l0.29,0.25l0.289,0.251l0.288,0.253l0.287,0.255l0.287,0.257l0.286,0.258l0.285,0.26l0.285,0.262l0.283,0.263l0.283,0.265l0.282,0.267l0.281,0.269l0.281,0.27l0.279,0.272l0.279,0.274l0.277,0.275l0.277,0.277l0.276,0.279l0.275,0.28l0.275,0.282l0.273,0.284l0.272,0.285l0.272,0.287l0.27,0.289l0.27,0.291l0.268,0.292l0.268,0.294l0.267,0.295l0.265,0.297l0.265,0.299l0.264,0.3l0.263,0.302l0.261,0.303l0.261,0.306l0.26,0.306l0.258,0.309l0.258,0.31l0.257,0.312l0.255,0.313l0.254,0.315l0.254,0.316l0.252,0.319l0.251,0.319l0.25,0.322l0.249,0.322l0.248,0.325l0.247,0.326l0.245,0.328l0.245,0.329l0.243,0.331l0.242,0.332l0.241,0.334l0.24,0.336l0.238,0.337l0.238,0.338l0.236,0.34l0.235,0.342l0.233,0.343l0.233,0.345l0.231,0.347l0.23,0.347l0.229,0.35l0.227,0.35l0.225,0.351l0.223,0.352l0.222,0.352l0.219,0.353l0.218,0.353l0.215,0.353l0.214,0.354l0.212,0.354l0.21,0.355l0.208,0.356l0.206,0.356l0.204,0.356l0.202,0.356l0.201,0.358l0.198,0.357l0.197,0.358l0.194,0.358l0.193,0.359l0.191,0.359l0.189,0.359l0.187,0.36l0.185,0.36l0.183,0.36l0.182,0.361l0.179,0.361l0.178,0.361l0.175,0.362l0.174,0.362l0.172,0.362l0.17,0.362l0.168,0.363l0.166,0.363l0.164,0.363l0.162,0.363l0.161,0.364l0.158,0.364l0.157,0.363l0.155,0.365l0.153,0.364l0.15,0.365l0.149,0.364l0.148,0.365l0.145,0.365l0.143,0.365l0.142,0.365l0.139,0.366l0.138,0.365l0.136,0.366l0.133,0.365l0.132,0.366l0.13,0.366l0.129,0.366l0.126,0.366l0.124,0.366l0.123,0.366l0.12,0.366l0.119,0.366l0.117,0.366l0.115,0.366l0.113,0.366l0.111,0.366l0.109,0.366l0.107,0.366l0.106,0.366l0.103,0.366l0.102,0.365l0.1,0.366l0.098,0.366l0.096,0.365l0.094,0.366l0.092,0.365l0.09,0.365l0.088,0.365l0.087,0.365l0.085,0.365l0.082,0.365l0.081,0.364l0.079,0.365l0.077,0.364l0.075,0.364l0.073,0.363l0.072,0.364l0.069,0.363l0.068,0.363l0.065,0.363l0.064,0.363l0.062,0.362l0.06,0.363l0.058,0.361l0.056,0.362l0.055,0.361l0.052,0.361l0.051,0.361l0.048,0.36l0.047,0.36l0.045,0.36l0.043,0.359l0.041,0.36l0.039,0.358l0.037,0.359l0.035,0.357l0.034,0.358l0.031,0.357l0.03,0.357l0.027,0.356l0.026,0.356l0.024,0.356l0.022,0.355l0.02,0.354l0.018,0.354l0.017,0.354l0.014,0.353l0.012,0.353l0.011,0.352l0.009,0.352l0.006,0.351l0.005,0.351l0.003,0.35l0.001,0.35l-0.001,0.349l-0.002,0.348l-0.005,0.348l-0.007,0.348l-0.008,0.347l-0.011,0.346l-0.012,0.346l-0.015,0.345l-0.016,0.344l-0.018,0.344l-0.02,0.343l-0.022,0.343l-0.024,0.342l-0.026,0.341l-0.028,0.34l-0.029,0.34l-0.032,0.339l-0.034,0.339l-0.035,0.337l-0.037,0.337l-0.04,0.337l-0.041,0.335l-0.043,0.335l-0.046,0.334l-0.047,0.334l-0.049,0.332l-0.051,0.332l-0.053,0.331l-0.055,0.33l-0.056,0.329l-0.059,0.329l-0.061,0.327l-0.063,0.327l-0.064,0.326l-0.067,0.325l-0.068,0.324l-0.071,0.324l-0.072,0.322l-0.075,0.322l-0.076,0.32l-0.079,0.32l-0.08,0.319l-0.082,0.318l-0.085,0.317l-0.086,0.316l-0.088,0.315l-0.09,0.314l-0.093,0.313l-0.094,0.311l-0.096,0.311l-0.098,0.31l-0.1,0.309l-0.102,0.308l-0.104,0.307l-0.106,0.306l-0.108,0.304l-0.11,0.304l-0.112,0.302l-0.115,0.302l-0.116,0.3l-0.118,0.299l-0.12,0.298l-0.122,0.297l-0.124,0.295l-0.126,0.295l-0.128,0.293l-0.13,0.292l-0.132,0.291l-0.135,0.289l-0.136,0.289l-0.138,0.287l-0.14,0.285l-0.142,0.285l-0.145,0.283l-0.146,0.282l-0.148,0.281l-0.15,0.279l-0.153,0.278l-0.154,0.277l-0.157,0.275l-0.158,0.274l-0.16,0.272l-0.163,0.271l-0.164,0.27l-0.167,0.268l-0.169,0.267l-0.17,0.265l-0.173,0.264l-0.175,0.262l-0.176,0.261l-0.179,0.259l-0.181,0.258l-0.183,0.256l-0.185,0.255l-0.187,0.253l-0.189,0.252l-0.191,0.25l-0.193,0.248l-0.195,0.247l-0.197,0.245l-0.199,0.244l-0.201,0.241l-0.203,0.24l-0.206,0.239l-0.207,0.236l-0.209,0.235l-0.211,0.234l-0.214,0.231l-0.215,0.23l-0.218,0.228l-0.219,0.226l-0.221,0.224l-0.224,0.223l-0.225,0.22l-0.228,0.219l-0.229,0.217l-0.231,0.215l-0.234,0.213l-0.235,0.212l-0.238,0.209l-0.239,0.207l-0.241,0.206l-0.244,0.203l-0.245,0.202l-0.247,0.199l-0.25,0.198l-0.251,0.195l-0.253,0.194l-0.255,0.191l-0.257,0.189l-0.259,0.188l-0.261,0.185l-0.263,0.183l-0.265,0.181l-0.266,0.179l-0.269,0.176l-0.27,0.175l-0.272,0.171l-0.272,0.169l-0.274,0.167l-0.275,0.163l-0.276,0.162l-0.277,0.158l-0.278,0.156l-0.279,0.153l-0.281,0.151l-0.281,0.148l-0.283,0.146l-0.283,0.143l-0.285,0.14l-0.285,0.138l-0.287,0.135l-0.287,0.132l-0.288,0.13l-0.29,0.127l-0.29,0.125l-0.291,0.122l-0.292,0.12l-0.293,0.117l-0.294,0.114l-0.295,0.112l-0.295,0.109l-0.297,0.107l-0.297,0.104l-0.298,0.101l-0.299,0.099l-0.299,0.097l-0.301,0.093l-0.3,0.092l-0.302,0.088l-0.303,0.087l-0.303,0.083l-0.304,0.081l-0.304,0.079l-0.306,0.076l-0.305,0.074l-0.307,0.071l-0.307,0.069l-0.308,0.066l-0.308,0.063l-0.309,0.061l-0.309,0.059l-0.31,0.056l-0.311,0.054l-0.311,0.051l-0.312,0.049l-0.312,0.046l-0.313,0.044l-0.313,0.042l-0.313,0.039l-0.314,0.036l-0.315,0.034l-0.315,0.032l-0.315,0.03l-0.316,0.027l-0.316,0.024l-0.317,0.022l-0.317,0.02l-0.317,0.017l-0.318,0.015l-0.318,0.013l-0.319,0.01l-0.318,0.008l-0.32,0.006l-0.319,0.003l-0.32,0.001l-0.32,-0.001l-0.32,-0.004l-0.32,-0.006l-0.321,-0.008l-0.321,-0.011l-0.321,-0.013l-0.322,-0.015l-0.322,-0.018l-0.322,-0.02l-0.322,-0.022l-0.322,-0.024l-0.323,-0.027l-0.322,-0.028l-0.323,-0.032l-0.323,-0.033l-0.323,-0.035l-0.323,-0.038l-0.324,-0.04l-0.323,-0.043l-0.324,-0.044l-0.324,-0.047l-0.324,-0.049l-0.323,-0.051l-0.325,-0.053l-0.324,-0.055l-0.324,-0.058l-0.324,-0.06l-0.324,-0.062l-0.324,-0.064l-0.325,-0.066l-0.324,-0.068l-0.324,-0.071l-0.324,-0.073l-0.325,-0.074l-0.324,-0.077l-0.324,-0.079l-0.324,-0.081l-0.324,-0.084l-0.325,-0.085l-0.324,-0.088l-0.323,-0.089l-0.324,-0.092l-0.324,-0.094l-0.324,-0.096l-0.323,-0.097l-0.324,-0.1l-0.323,-0.102l-0.324,-0.105l-0.323,-0.106l-0.323,-0.108l-0.323,-0.11l-0.322,-0.112l-0.323,-0.115l-0.322,-0.116l-0.322,-0.119l-0.322,-0.12l-0.322,-0.122l-0.322,-0.125l-0.321,-0.126l-0.321,-0.129l-0.321,-0.13l-0.321,-0.132l-0.32,-0.135l-0.32,-0.136l-0.32,-0.139l-0.32,-0.14l-0.319,-0.142l-0.319,-0.145l-0.319,-0.146l-0.319,-0.148l-0.318,-0.15l-0.318,-0.152l-0.317,-0.154l-0.318,-0.156l-0.317,-0.158l-0.316,-0.16l-0.316,-0.162l-0.316,-0.163l-0.316,-0.166l-0.315,-0.168l-0.314,-0.169l-0.315,-0.171l-0.314,-0.174l-0.313,-0.175l-0.313,-0.177l-0.313,-0.179l-0.312,-0.18l-0.312,-0.183l-0.311,-0.185l-0.311,-0.186l-0.311,-0.189l-0.309,-0.19l-0.31,-0.192l-0.309,-0.194l-0.308,-0.195l-0.308,-0.198l-0.308,-0.199l-0.307,-0.202l-0.306,-0.203l-0.306,-0.205l-0.305,-0.206l-0.305,-0.209l-0.304,-0.211l-0.304,-0.212l-0.303,-0.214l-0.303,-0.216l-0.302,-0.217l-0.301,-0.22l-0.301,-0.221l-0.3,-0.223l-0.299,-0.225l-0.299,-0.227l-0.298,-0.228l-0.298,-0.231l-0.296,-0.232l-0.297,-0.234l-0.295,-0.235l-0.295,-0.237l-0.294,-0.24l-0.294,-0.24l-0.292,-0.243l-0.292,-0.244l-0.292,-0.247l-0.29,-0.247l-0.29,-0.25l-0.289,-0.251l-0.288,-0.254l-0.288,-0.254l-0.287,-0.257l-0.286,-0.258l-0.285,-0.26l-0.284,-0.262l-0.284,-0.263l-0.283,-0.266l-0.282,-0.267l-0.281,-0.268l-0.28,-0.27l-0.28,-0.272l-0.278,-0.274l-0.278,-0.275l-0.277,-0.277l-0.276,-0.279l-0.275,-0.281l-0.274,-0.282l-0.273,-0.283l-0.273,-0.286l-0.271,-0.287l-0.271,-0.289l-0.269,-0.29l-0.269,-0.292l-0.268,-0.294l-0.266,-0.295l-0.266,-0.297l-0.265,-0.299l-0.263,-0.3l-0.263,-0.302l-0.262,-0.304l-0.261,-0.305l-0.259,-0.307l-0.259,-0.308l-0.258,-0.31l-0.256,-0.312l-0.256,-0.313l-0.254,-0.315l-0.253,-0.317l-0.253,-0.318l-0.251,-0.32l-0.25,-0.321l-0.249,-0.323l-0.248,-0.324l-0.246,-0.326l-0.246,-0.328l-0.244,-0.329l-0.244,-0.331l-0.242,-0.333l-0.241,-0.333l-0.239,-0.336l-0.239,-0.337l-0.237,-0.339l-0.236,-0.34l-0.235,-0.342l-0.234,-0.343l-0.232,-0.345l-0.232,-0.346l-0.23,-0.348l-0.228,-0.349l-0.227,-0.351l-0.225,-0.351l-0.224,-0.351l-0.221,-0.352l-0.22,-0.353l-0.217,-0.353l-0.216,-0.353l-0.214,-0.354l-0.211,-0.355l-0.21,-0.355l-0.208,-0.355l-0.206,-0.356l-0.205,-0.356l-0.202,-0.357l-0.2,-0.357l-0.199,-0.357l-0.196,-0.358l-0.195,-0.359l-0.193,-0.358l-0.191,-0.359l-0.189,-0.36l-0.187,-0.359l-0.185,-0.36l-0.183,-0.361l-0.181,-0.36l-0.18,-0.361l-0.177,-0.362l-0.176,-0.361l-0.174,-0.362l-0.171,-0.362l-0.17,-0.363l-0.168,-0.362l-0.166,-0.363l-0.165,-0.363l-0.162,-0.364l-0.16,-0.363l-0.159,-0.364l-0.157,-0.364l-0.154,-0.364l-0.153,-0.364l-0.151,-0.365l-0.149,-0.365l-0.147,-0.364l-0.145,-0.365l-0.144,-0.366l-0.141,-0.365l-0.14,-0.365l-0.137,-0.366l-0.136,-0.365l-0.134,-0.366l-0.132,-0.366l-0.13,-0.365l-0.128,-0.366l-0.126,-0.366l-0.125,-0.366l-0.122,-0.366l-0.121,-0.366l-0.119,-0.366l-0.116,-0.366l-0.115,-0.366l-0.113,-0.366l-0.111,-0.366l-0.11,-0.366l-0.107,-0.366l-0.105,-0.366l-0.104,-0.366l-0.101,-0.366l-0.1,-0.366l-0.098,-0.365l-0.096,-0.366l-0.094,-0.365l-0.092,-0.366l-0.091,-0.365l-0.088,-0.365l-0.086,-0.365l-0.085,-0.365l-0.083,-0.364l-0.081,-0.365l-0.079,-0.364l-0.077,-0.364l-0.075,-0.364l-0.073,-0.364l-0.071,-0.363l-0.07,-0.364l-0.067,-0.363l-0.066,-0.363l-0.064,-0.362l-0.062,-0.363l-0.06,-0.362l-0.058,-0.362l-0.056,-0.361l-0.054,-0.362l-0.053,-0.361l-0.05,-0.36l-0.049,-0.361l-0.046,-0.36l-0.045,-0.359l-0.043,-0.36l-0.041,-0.359l-0.039,-0.359l-0.037,-0.358l-0.036,-0.358l-0.033,-0.357l-0.032,-0.358l-0.029,-0.356l-0.028,-0.357l-0.026,-0.356l-0.024,-0.355l-0.022,-0.355l-0.02,-0.355l-0.018,-0.354l-0.016,-0.354l-0.015,-0.353l-0.012,-0.353l-0.011,-0.352l-0.008,-0.351l-0.007,-0.352l-0.005,-0.35l-0.003,-0.351l-0.001,-0.349l0.001,-0.349l0.003,-0.349l0.005,-0.348l0.006,-0.347l0.009,-0.347l0.01,-0.346l0.013,-0.346l0.014,-0.345l0.016,-0.345l0.018,-0.343l0.021,-0.344l0.022,-0.342l0.023,-0.342l0.026,-0.341l0.028,-0.341l0.03,-0.339l0.031,-0.34l0.034,-0.338l0.035,-0.338l0.038,-0.337l0.039,-0.336l0.042,-0.336l0.043,-0.335l0.045,-0.334l0.047,-0.333l0.049,-0.332l0.051,-0.332l0.053,-0.331l0.055,-0.33l0.057,-0.33l0.059,-0.328l0.06,-0.328l0.063,-0.327l0.065,-0.326l0.066,-0.325l0.069,-0.324l0.07,-0.323l0.073,-0.323l0.074,-0.321l0.077,-0.321l0.078,-0.32l0.08,-0.318l0.083,-0.318l0.084,-0.317l0.086,-0.316l0.089,-0.315l0.09,-0.314l0.092,-0.313l0.094,-0.312l0.096,-0.311l0.098,-0.31l0.101,-0.309l0.102,-0.308l0.104,-0.306l0.106,-0.306l0.108,-0.305l0.11,-0.303l0.112,-0.303l0.114,-0.301l0.116,-0.3l0.118,-0.299l0.12,-0.298l0.122,-0.297l0.124,-0.296l0.127,-0.294l0.128,-0.293l0.13,-0.292l0.132,-0.291l0.134,-0.29l0.136,-0.288l0.138,-0.287l0.141,-0.286l0.142,-0.284l0.144,-0.284l0.146,-0.282l0.149,-0.28l0.15,-0.279l0.152,-0.278l0.155,-0.277l0.156,-0.275l0.158,-0.274l0.161,-0.273l0.162,-0.271l0.165,-0.269l0.167,-0.268l0.168,-0.267l0.171,-0.265l0.172,-0.264l0.175,-0.263l0.177,-0.26l0.179,-0.26l0.181,-0.258l0.182,-0.256l0.185,-0.255l0.187,-0.253l0.189,-0.251l0.191,-0.25l0.193,-0.249l0.195,-0.246l0.197,-0.245l0.2,-0.244l0.201,-0.242l0.203,-0.24l0.205,-0.238l0.207,-0.237l0.21,-0.235l0.211,-0.233l0.213,-0.232l0.216,-0.229l0.217,-0.228l0.219,-0.226l0.222,-0.225l0.223,-0.222l0.226,-0.221l0.227,-0.219l0.229,-0.217l0.232,-0.215l0.233,-0.213l0.236,-0.211l0.237,-0.209l0.239,-0.208l0.242,-0.205l0.243,-0.204l0.245,-0.201l0.248,-0.2l0.249,-0.197l0.251,-0.196l0.253,-0.193l0.256,-0.192l0.257,-0.189l0.259,-0.187l0.261,-0.185l0.262,-0.183l0.265,-0.181l0.267,-0.179l0.269,-0.177l0.27,-0.174l0.271,-0.172l0.273,-0.169l0.273,-0.166l0.275,-0.164l0.276,-0.161l0.277,-0.159l0.279,-0.156l0.279,-0.153l0.28,-0.151l0.282,-0.148l0.282,-0.145l0.284,-0.143l0.284,-0.14l0.286,-0.138l0.286,-0.135l0.287,-0.133l0.289,-0.129l0.289,-0.128l0.291,-0.124l0.291,-0.123l0.292,-0.119l0.293,-0.117l0.294,-0.114l0.294,-0.112l0.296,-0.109l0.296,-0.107l0.297,-0.104l0.298,-0.102l0.299,-0.099l0.3,-0.096l0.3,-0.094l0.301,-0.091l0.302,-0.089l0.302,-0.086l0.303,-0.084l0.304,-0.081l0.305,-0.079l0.305,-0.076l0.306,-0.073l0.306,-0.071l0.307,-0.069l0.308,-0.066l0.309,-0.064l0.308,-0.061l0.31,-0.058l0.31,-0.057l0.311,-0.053l0.311,-0.052l0.311,-0.048l0.312,-0.047l0.313,-0.044l0.313,-0.041l0.314,-0.039l0.314,-0.037l0.314,-0.034l0.315,-0.032l0.316,-0.029l0.316,-0.027l0.316,-0.024l0.316,-0.023l0.317,-0.019l0.318,-0.018l0.318,-0.015l0.318,-0.012l0.318,-0.011l0.319,-0.008l0.319,-0.005l0.319,-0.004l0.32,-0.001l0.32,0.002Zm-0.613,3.999l-0.291,0.003l-0.289,0.005l-0.289,0.008l-0.289,0.009l-0.288,0.011l-0.288,0.014l-0.288,0.016l-0.286,0.018l-0.287,0.02l-0.286,0.022l-0.285,0.024l-0.285,0.027l-0.284,0.028l-0.284,0.031l-0.283,0.033l-0.282,0.035l-0.282,0.038l-0.282,0.039l-0.281,0.042l-0.28,0.044l-0.28,0.046l-0.279,0.048l-0.278,0.051l-0.278,0.052l-0.277,0.055l-0.277,0.057l-0.275,0.059l-0.276,0.062l-0.274,0.064l-0.274,0.065l-0.273,0.069l-0.273,0.07l-0.271,0.073l-0.271,0.074l-0.271,0.077l-0.269,0.08l-0.269,0.081l-0.268,0.084l-0.267,0.086l-0.267,0.088l-0.266,0.091l-0.265,0.093l-0.264,0.095l-0.263,0.097l-0.263,0.1l-0.261,0.101l-0.261,0.105l-0.26,0.106l-0.26,0.109l-0.258,0.111l-0.257,0.113l-0.257,0.115l-0.256,0.118l-0.255,0.12l-0.254,0.123l-0.253,0.125l-0.252,0.127l-0.251,0.129l-0.25,0.132l-0.25,0.134l-0.248,0.136l-0.247,0.139l-0.247,0.141l-0.245,0.143l-0.245,0.146l-0.243,0.148l-0.243,0.15l-0.241,0.153l-0.24,0.155l-0.24,0.157l-0.237,0.159l-0.235,0.161l-0.234,0.163l-0.232,0.165l-0.231,0.166l-0.228,0.169l-0.227,0.17l-0.225,0.172l-0.224,0.174l-0.221,0.175l-0.22,0.178l-0.218,0.179l-0.217,0.181l-0.215,0.183l-0.213,0.184l-0.211,0.187l-0.209,0.188l-0.208,0.189l-0.206,0.192l-0.204,0.193l-0.203,0.195l-0.2,0.196l-0.199,0.198l-0.198,0.2l-0.195,0.202l-0.194,0.203l-0.192,0.205l-0.19,0.206l-0.189,0.208l-0.186,0.21l-0.185,0.211l-0.184,0.213l-0.181,0.215l-0.18,0.216l-0.178,0.217l-0.176,0.219l-0.175,0.221l-0.173,0.222l-0.171,0.224l-0.169,0.226l-0.167,0.226l-0.166,0.229l-0.164,0.23l-0.162,0.231l-0.161,0.233l-0.158,0.234l-0.157,0.236l-0.156,0.237l-0.153,0.238l-0.152,0.24l-0.15,0.242l-0.148,0.243l-0.146,0.244l-0.145,0.246l-0.143,0.247l-0.141,0.248l-0.139,0.25l-0.138,0.251l-0.136,0.252l-0.134,0.254l-0.132,0.255l-0.131,0.257l-0.129,0.257l-0.127,0.259l-0.125,0.261l-0.124,0.261l-0.122,0.263l-0.12,0.264l-0.118,0.265l-0.116,0.267l-0.115,0.268l-0.113,0.269l-0.111,0.27l-0.109,0.272l-0.108,0.272l-0.106,0.274l-0.104,0.275l-0.102,0.276l-0.101,0.278l-0.099,0.278l-0.097,0.28l-0.095,0.281l-0.094,0.282l-0.091,0.283l-0.09,0.284l-0.088,0.285l-0.087,0.286l-0.084,0.287l-0.083,0.289l-0.081,0.289l-0.08,0.291l-0.077,0.291l-0.076,0.293l-0.074,0.293l-0.072,0.295l-0.071,0.296l-0.068,0.296l-0.067,0.298l-0.065,0.298l-0.064,0.3l-0.061,0.3l-0.06,0.301l-0.058,0.303l-0.056,0.303l-0.055,0.304l-0.052,0.305l-0.051,0.306l-0.049,0.307l-0.047,0.307l-0.046,0.309l-0.044,0.309l-0.042,0.311l-0.04,0.311l-0.038,0.312l-0.037,0.312l-0.035,0.314l-0.033,0.314l-0.031,0.316l-0.029,0.315l-0.028,0.317l-0.026,0.318l-0.024,0.318l-0.022,0.319l-0.021,0.319l-0.019,0.321l-0.017,0.321l-0.015,0.322l-0.013,0.322l-0.012,0.324l-0.01,0.324l-0.008,0.324l-0.006,0.325l-0.004,0.326l-0.003,0.327l-0.001,0.327l0.001,0.328l0.003,0.328l0.004,0.329l0.007,0.33l0.008,0.33l0.01,0.331l0.012,0.331l0.013,0.332l0.015,0.333l0.017,0.333l0.019,0.333l0.021,0.334l0.023,0.335l0.024,0.335l0.026,0.335l0.028,0.336l0.029,0.337l0.032,0.337l0.033,0.337l0.035,0.338l0.037,0.338l0.039,0.339l0.04,0.339l0.043,0.34l0.044,0.34l0.046,0.34l0.047,0.341l0.05,0.341l0.051,0.341l0.053,0.342l0.055,0.342l0.057,0.343l0.059,0.343l0.06,0.343l0.062,0.343l0.064,0.344l0.066,0.344l0.067,0.344l0.07,0.345l0.071,0.345l0.073,0.345l0.075,0.345l0.076,0.345l0.079,0.346l0.08,0.346l0.082,0.346l0.084,0.347l0.085,0.346l0.088,0.347l0.089,0.347l0.091,0.347l0.093,0.347l0.095,0.347l0.097,0.348l0.098,0.347l0.1,0.348l0.102,0.348l0.104,0.348l0.106,0.348l0.107,0.348l0.109,0.348l0.111,0.348l0.113,0.348l0.115,0.348l0.117,0.349l0.118,0.348l0.12,0.348l0.122,0.348l0.124,0.349l0.125,0.348l0.128,0.348l0.129,0.348l0.131,0.348l0.133,0.348l0.135,0.348l0.137,0.348l0.138,0.348l0.14,0.348l0.142,0.347l0.144,0.348l0.146,0.347l0.147,0.348l0.15,0.347l0.151,0.347l0.153,0.346l0.155,0.347l0.156,0.346l0.159,0.347l0.16,0.346l0.162,0.345l0.164,0.346l0.166,0.345l0.168,0.346l0.169,0.344l0.172,0.345l0.173,0.345l0.175,0.344l0.176,0.343l0.179,0.344l0.181,0.343l0.182,0.343l0.184,0.343l0.186,0.342l0.188,0.342l0.189,0.341l0.192,0.342l0.193,0.34l0.195,0.341l0.197,0.34l0.199,0.34l0.201,0.339l0.202,0.339l0.205,0.338l0.206,0.338l0.208,0.338l0.21,0.337l0.211,0.337l0.214,0.336l0.215,0.336l0.218,0.335l0.218,0.334l0.22,0.333l0.221,0.331l0.223,0.33l0.223,0.328l0.225,0.327l0.226,0.325l0.227,0.324l0.228,0.322l0.229,0.321l0.23,0.319l0.231,0.318l0.233,0.316l0.233,0.314l0.235,0.313l0.236,0.312l0.237,0.31l0.237,0.309l0.239,0.306l0.24,0.306l0.241,0.304l0.242,0.302l0.243,0.301l0.244,0.299l0.245,0.298l0.246,0.296l0.247,0.294l0.248,0.293l0.249,0.291l0.249,0.29l0.251,0.288l0.252,0.287l0.252,0.285l0.254,0.283l0.254,0.282l0.256,0.28l0.256,0.278l0.257,0.277l0.258,0.276l0.258,0.273l0.26,0.273l0.261,0.27l0.261,0.269l0.262,0.267l0.263,0.266l0.264,0.264l0.264,0.262l0.266,0.261l0.266,0.259l0.267,0.257l0.267,0.256l0.269,0.254l0.269,0.252l0.27,0.251l0.271,0.249l0.271,0.247l0.272,0.246l0.273,0.244l0.273,0.243l0.275,0.24l0.274,0.239l0.276,0.238l0.276,0.235l0.277,0.234l0.278,0.232l0.278,0.231l0.278,0.229l0.28,0.227l0.28,0.225l0.28,0.224l0.281,0.222l0.282,0.22l0.282,0.218l0.283,0.217l0.284,0.215l0.284,0.213l0.284,0.212l0.285,0.21l0.286,0.208l0.286,0.206l0.287,0.205l0.287,0.202l0.287,0.201l0.288,0.2l0.289,0.197l0.289,0.196l0.289,0.194l0.29,0.192l0.29,0.19l0.291,0.189l0.291,0.187l0.292,0.185l0.292,0.183l0.292,0.181l0.293,0.18l0.293,0.178l0.293,0.176l0.294,0.174l0.294,0.172l0.295,0.171l0.295,0.168l0.295,0.167l0.295,0.165l0.296,0.164l0.296,0.161l0.296,0.159l0.297,0.158l0.297,0.156l0.297,0.154l0.297,0.152l0.298,0.15l0.298,0.149l0.298,0.146l0.298,0.145l0.299,0.143l0.298,0.141l0.299,0.139l0.299,0.137l0.3,0.135l0.299,0.134l0.3,0.131l0.299,0.13l0.3,0.128l0.3,0.126l0.3,0.123l0.301,0.123l0.3,0.12l0.3,0.118l0.301,0.116l0.3,0.114l0.301,0.113l0.301,0.11l0.301,0.109l0.3,0.107l0.301,0.104l0.301,0.103l0.301,0.101l0.301,0.099l0.301,0.096l0.3,0.095l0.301,0.093l0.301,0.091l0.301,0.089l0.301,0.088l0.3,0.085l0.301,0.083l0.3,0.081l0.301,0.079l0.3,0.077l0.301,0.075l0.3,0.074l0.3,0.071l0.3,0.069l0.299,0.067l0.3,0.065l0.3,0.064l0.299,0.061l0.299,0.059l0.299,0.057l0.299,0.055l0.299,0.053l0.298,0.051l0.298,0.049l0.298,0.047l0.298,0.045l0.297,0.043l0.298,0.041l0.297,0.039l0.296,0.036l0.297,0.035l0.296,0.033l0.296,0.03l0.296,0.029l0.295,0.026l0.295,0.024l0.295,0.023l0.294,0.02l0.294,0.018l0.294,0.016l0.293,0.014l0.293,0.012l0.292,0.009l0.292,0.008l0.292,0.005l0.291,0.004l0.291,0.001l0.291,-0.001l0.29,-0.003l0.29,-0.005l0.289,-0.007l0.289,-0.009l0.288,-0.012l0.288,-0.013l0.287,-0.016l0.287,-0.018l0.286,-0.02l0.286,-0.022l0.285,-0.025l0.285,-0.026l0.284,-0.029l0.284,-0.031l0.283,-0.033l0.283,-0.035l0.282,-0.037l0.281,-0.04l0.281,-0.041l0.28,-0.044l0.28,-0.046l0.279,-0.049l0.279,-0.05l0.277,-0.053l0.278,-0.054l0.276,-0.058l0.276,-0.059l0.275,-0.061l0.275,-0.064l0.273,-0.066l0.274,-0.068l0.272,-0.07l0.272,-0.073l0.271,-0.075l0.27,-0.077l0.27,-0.079l0.268,-0.082l0.269,-0.083l0.267,-0.086l0.266,-0.089l0.266,-0.09l0.265,-0.093l0.264,-0.095l0.264,-0.097l0.262,-0.1l0.262,-0.102l0.261,-0.104l0.26,-0.106l0.259,-0.109l0.258,-0.111l0.258,-0.113l0.257,-0.116l0.255,-0.118l0.255,-0.12l0.254,-0.122l0.253,-0.125l0.252,-0.127l0.251,-0.13l0.251,-0.131l0.249,-0.134l0.248,-0.137l0.248,-0.138l0.246,-0.141l0.246,-0.144l0.244,-0.145l0.244,-0.148l0.242,-0.151l0.241,-0.153l0.241,-0.155l0.239,-0.157l0.237,-0.159l0.236,-0.161l0.234,-0.163l0.232,-0.164l0.23,-0.167l0.229,-0.168l0.227,-0.17l0.225,-0.172l0.223,-0.174l0.222,-0.176l0.22,-0.177l0.218,-0.179l0.216,-0.181l0.215,-0.183l0.213,-0.185l0.211,-0.186l0.21,-0.188l0.207,-0.19l0.206,-0.191l0.205,-0.193l0.202,-0.195l0.201,-0.197l0.199,-0.198l0.197,-0.2l0.196,-0.201l0.193,-0.203l0.192,-0.205l0.191,-0.207l0.188,-0.208l0.187,-0.209l0.185,-0.212l0.183,-0.212l0.182,-0.215l0.179,-0.216l0.178,-0.218l0.177,-0.219l0.174,-0.221l0.173,-0.222l0.171,-0.224l0.169,-0.225l0.168,-0.227l0.165,-0.228l0.164,-0.23l0.163,-0.231l0.16,-0.233l0.159,-0.234l0.157,-0.236l0.155,-0.237l0.154,-0.239l0.151,-0.24l0.15,-0.241l0.148,-0.243l0.147,-0.244l0.144,-0.246l0.143,-0.247l0.142,-0.248l0.139,-0.25l0.138,-0.251l0.135,-0.253l0.135,-0.253l0.132,-0.256l0.13,-0.256l0.129,-0.258l0.127,-0.259l0.126,-0.26l0.123,-0.262l0.122,-0.262l0.12,-0.265l0.118,-0.265l0.117,-0.266l0.114,-0.268l0.113,-0.269l0.112,-0.271l0.109,-0.271l0.108,-0.273l0.105,-0.274l0.105,-0.275l0.102,-0.276l0.1,-0.277l0.099,-0.279l0.097,-0.279l0.096,-0.281l0.093,-0.282l0.092,-0.283l0.09,-0.284l0.088,-0.285l0.086,-0.286l0.085,-0.288l0.083,-0.288l0.081,-0.29l0.079,-0.29l0.078,-0.292l0.075,-0.292l0.074,-0.294l0.073,-0.294l0.07,-0.296l0.069,-0.296l0.067,-0.298l0.065,-0.299l0.063,-0.299l0.062,-0.3l0.059,-0.302l0.058,-0.302l0.057,-0.303l0.054,-0.304l0.053,-0.305l0.05,-0.306l0.05,-0.307l0.047,-0.308l0.045,-0.308l0.044,-0.31l0.042,-0.31l0.04,-0.311l0.039,-0.312l0.036,-0.313l0.035,-0.313l0.033,-0.315l0.031,-0.315l0.03,-0.316l0.028,-0.317l0.025,-0.317l0.025,-0.318l0.022,-0.319l0.02,-0.32l0.019,-0.32l0.017,-0.321l0.015,-0.322l0.014,-0.323l0.011,-0.323l0.01,-0.324l0.008,-0.325l0.006,-0.325l0.005,-0.326l0.002,-0.326l0.001,-0.327l-0.001,-0.328l-0.002,-0.329l-0.005,-0.329l-0.006,-0.329l-0.008,-0.331l-0.01,-0.33l-0.012,-0.332l-0.014,-0.332l-0.015,-0.332l-0.017,-0.333l-0.019,-0.333l-0.021,-0.335l-0.022,-0.334l-0.024,-0.335l-0.026,-0.336l-0.028,-0.336l-0.03,-0.336l-0.032,-0.337l-0.033,-0.338l-0.035,-0.337l-0.037,-0.339l-0.038,-0.338l-0.041,-0.34l-0.042,-0.339l-0.044,-0.34l-0.046,-0.34l-0.048,-0.341l-0.049,-0.341l-0.052,-0.342l-0.053,-0.342l-0.055,-0.342l-0.057,-0.342l-0.058,-0.343l-0.06,-0.343l-0.063,-0.344l-0.064,-0.343l-0.065,-0.344l-0.068,-0.345l-0.069,-0.344l-0.071,-0.345l-0.073,-0.345l-0.075,-0.345l-0.077,-0.346l-0.078,-0.346l-0.08,-0.346l-0.083,-0.346l-0.083,-0.346l-0.086,-0.347l-0.088,-0.346l-0.089,-0.347l-0.091,-0.347l-0.093,-0.348l-0.095,-0.347l-0.096,-0.347l-0.098,-0.348l-0.101,-0.348l-0.102,-0.347l-0.103,-0.348l-0.106,-0.348l-0.108,-0.348l-0.109,-0.348l-0.111,-0.348l-0.113,-0.349l-0.115,-0.348l-0.116,-0.348l-0.118,-0.348l-0.121,-0.349l-0.122,-0.348l-0.123,-0.348l-0.126,-0.348l-0.127,-0.349l-0.13,-0.348l-0.131,-0.348l-0.133,-0.348l-0.135,-0.348l-0.136,-0.348l-0.139,-0.348l-0.14,-0.347l-0.142,-0.348l-0.144,-0.347l-0.145,-0.348l-0.148,-0.347l-0.149,-0.347l-0.151,-0.347l-0.153,-0.347l-0.155,-0.346l-0.157,-0.347l-0.158,-0.346l-0.161,-0.346l-0.162,-0.346l-0.164,-0.345l-0.166,-0.346l-0.167,-0.345l-0.17,-0.345l-0.171,-0.345l-0.173,-0.344l-0.175,-0.344l-0.177,-0.344l-0.179,-0.343l-0.18,-0.344l-0.182,-0.343l-0.185,-0.342l-0.186,-0.342l-0.187,-0.342l-0.19,-0.342l-0.191,-0.341l-0.194,-0.341l-0.195,-0.34l-0.197,-0.34l-0.199,-0.34l-0.2,-0.339l-0.203,-0.339l-0.204,-0.339l-0.206,-0.338l-0.208,-0.337l-0.21,-0.337l-0.212,-0.337l-0.214,-0.336l-0.215,-0.336l-0.217,-0.335l-0.219,-0.334l-0.22,-0.333l-0.221,-0.331l-0.222,-0.33l-0.224,-0.328l-0.224,-0.327l-0.226,-0.325l-0.227,-0.324l-0.228,-0.322l-0.229,-0.321l-0.231,-0.319l-0.231,-0.318l-0.232,-0.316l-0.234,-0.315l-0.235,-0.313l-0.235,-0.311l-0.237,-0.31l-0.238,-0.309l-0.239,-0.307l-0.24,-0.305l-0.241,-0.304l-0.242,-0.302l-0.243,-0.301l-0.244,-0.299l-0.245,-0.298l-0.245,-0.296l-0.247,-0.294l-0.248,-0.293l-0.249,-0.292l-0.25,-0.289l-0.251,-0.288l-0.251,-0.287l-0.253,-0.285l-0.253,-0.283l-0.255,-0.282l-0.255,-0.28l-0.256,-0.279l-0.257,-0.277l-0.258,-0.275l-0.259,-0.274l-0.26,-0.272l-0.26,-0.27l-0.261,-0.269l-0.263,-0.267l-0.263,-0.266l-0.263,-0.264l-0.265,-0.262l-0.265,-0.261l-0.266,-0.259l-0.267,-0.257l-0.268,-0.256l-0.268,-0.254l-0.27,-0.253l-0.27,-0.25l-0.27,-0.249l-0.272,-0.248l-0.272,-0.246l-0.273,-0.244l-0.273,-0.242l-0.274,-0.241l-0.275,-0.239l-0.276,-0.237l-0.276,-0.236l-0.277,-0.233l-0.277,-0.233l-0.278,-0.23l-0.279,-0.229l-0.279,-0.227l-0.28,-0.225l-0.281,-0.224l-0.281,-0.222l-0.282,-0.22l-0.282,-0.219l-0.283,-0.216l-0.283,-0.216l-0.284,-0.213l-0.285,-0.211l-0.285,-0.21l-0.285,-0.208l-0.287,-0.206l-0.286,-0.205l-0.287,-0.203l-0.288,-0.201l-0.288,-0.199l-0.288,-0.197l-0.289,-0.196l-0.29,-0.194l-0.29,-0.192l-0.29,-0.191l-0.291,-0.188l-0.291,-0.187l-0.291,-0.185l-0.292,-0.183l-0.293,-0.182l-0.292,-0.179l-0.293,-0.178l-0.294,-0.176l-0.294,-0.174l-0.294,-0.173l-0.294,-0.17l-0.295,-0.169l-0.295,-0.167l-0.296,-0.165l-0.295,-0.163l-0.297,-0.161l-0.296,-0.16l-0.296,-0.158l-0.297,-0.155l-0.298,-0.154l-0.297,-0.153l-0.298,-0.15l-0.297,-0.148l-0.298,-0.147l-0.299,-0.145l-0.298,-0.142l-0.299,-0.141l-0.299,-0.139l-0.299,-0.138l-0.299,-0.135l-0.3,-0.133l-0.299,-0.132l-0.3,-0.129l-0.3,-0.128l-0.3,-0.126l-0.3,-0.124l-0.3,-0.122l-0.3,-0.12l-0.301,-0.118l-0.3,-0.116l-0.301,-0.115l-0.301,-0.112l-0.3,-0.111l-0.301,-0.108l-0.301,-0.107l-0.301,-0.105l-0.301,-0.102l-0.3,-0.101l-0.301,-0.099l-0.301,-0.097l-0.301,-0.095l-0.301,-0.093l-0.301,-0.091l-0.3,-0.089l-0.301,-0.087l-0.301,-0.085l-0.3,-0.083l-0.301,-0.081l-0.3,-0.08l-0.301,-0.077l-0.3,-0.075l-0.3,-0.073l-0.3,-0.071l-0.3,-0.069l-0.3,-0.068l-0.3,-0.065l-0.299,-0.063l-0.3,-0.061l-0.299,-0.059l-0.299,-0.057l-0.299,-0.056l-0.298,-0.053l-0.299,-0.051l-0.298,-0.049l-0.298,-0.047l-0.297,-0.045l-0.298,-0.042l-0.297,-0.041l-0.297,-0.039l-0.297,-0.037l-0.296,-0.034l-0.297,-0.033l-0.296,-0.031l-0.295,-0.028l-0.296,-0.027l-0.294,-0.024l-0.295,-0.022l-0.294,-0.02l-0.294,-0.018l-0.294,-0.016l-0.293,-0.014l-0.293,-0.012l-0.293,-0.01l-0.292,-0.007l-0.292,-0.006l-0.291,-0.003l-0.291,-0.001l-0.29,0Z"/><path d="M103.138,136.331c5.901,-2.051 12.748,2.198 15.28,9.484c2.533,7.285 -0.202,14.865 -6.103,16.916c-5.901,2.051 -12.748,-2.198 -15.281,-9.483c-2.532,-7.285 0.203,-14.865 6.104,-16.917Z" style="fill:#2b1d5a;"/><path d="M106.451,131.818l0.201,0.005l0.2,0.008l0.201,0.01l0.199,0.014l0.2,0.017l0.199,0.019l0.198,0.022l0.198,0.026l0.197,0.027l0.197,0.031l0.197,0.033l0.195,0.036l0.195,0.039l0.195,0.041l0.193,0.044l0.193,0.046l0.192,0.049l0.192,0.052l0.19,0.054l0.19,0.057l0.189,0.059l0.189,0.061l0.187,0.064l0.187,0.066l0.185,0.069l0.185,0.071l0.184,0.074l0.183,0.075l0.182,0.078l0.181,0.08l0.18,0.083l0.179,0.085l0.178,0.087l0.177,0.089l0.177,0.091l0.175,0.094l0.174,0.095l0.173,0.098l0.172,0.1l0.171,0.102l0.17,0.104l0.168,0.106l0.168,0.108l0.166,0.11l0.166,0.112l0.164,0.114l0.163,0.117l0.162,0.118l0.16,0.12l0.16,0.121l0.158,0.124l0.157,0.126l0.156,0.128l0.155,0.129l0.153,0.131l0.152,0.133l0.151,0.135l0.15,0.137l0.148,0.139l0.147,0.14l0.145,0.142l0.145,0.144l0.143,0.146l0.141,0.147l0.14,0.149l0.139,0.151l0.138,0.153l0.136,0.154l0.134,0.156l0.134,0.157l0.131,0.16l0.131,0.161l0.128,0.162l0.128,0.164l0.125,0.166l0.125,0.167l0.122,0.169l0.122,0.171l0.119,0.172l0.118,0.174l0.117,0.175l0.115,0.177l0.113,0.178l0.112,0.18l0.11,0.181l0.108,0.183l0.107,0.184l0.105,0.186l0.103,0.187l0.102,0.189l0.099,0.19l0.098,0.191l0.097,0.193l0.094,0.195l0.093,0.195l0.091,0.197l0.089,0.199l0.087,0.2l0.086,0.201l0.083,0.202l0.082,0.204l0.079,0.205l0.078,0.207l0.076,0.207l0.074,0.209l0.071,0.21l0.07,0.21l0.067,0.21l0.064,0.21l0.063,0.211l0.06,0.21l0.058,0.211l0.055,0.211l0.054,0.211l0.05,0.211l0.049,0.211l0.047,0.211l0.044,0.211l0.042,0.211l0.039,0.211l0.038,0.211l0.035,0.211l0.032,0.21l0.031,0.211l0.029,0.211l0.026,0.21l0.024,0.21l0.021,0.211l0.02,0.209l0.017,0.21l0.015,0.21l0.013,0.209l0.011,0.209l0.008,0.208l0.007,0.209l0.004,0.208l0.002,0.208l0,0.207l-0.003,0.207l-0.004,0.207l-0.007,0.206l-0.009,0.206l-0.011,0.205l-0.013,0.205l-0.015,0.204l-0.018,0.204l-0.019,0.204l-0.022,0.203l-0.024,0.202l-0.026,0.202l-0.028,0.201l-0.031,0.201l-0.032,0.2l-0.035,0.199l-0.036,0.199l-0.039,0.198l-0.041,0.198l-0.043,0.196l-0.046,0.196l-0.047,0.196l-0.05,0.194l-0.051,0.194l-0.054,0.193l-0.056,0.192l-0.058,0.191l-0.06,0.191l-0.062,0.19l-0.065,0.188l-0.066,0.188l-0.069,0.187l-0.071,0.186l-0.073,0.185l-0.075,0.184l-0.077,0.183l-0.079,0.182l-0.082,0.181l-0.083,0.18l-0.086,0.178l-0.088,0.178l-0.09,0.177l-0.092,0.175l-0.095,0.174l-0.096,0.173l-0.099,0.172l-0.101,0.17l-0.103,0.169l-0.105,0.168l-0.108,0.166l-0.109,0.165l-0.112,0.164l-0.114,0.162l-0.116,0.16l-0.118,0.16l-0.12,0.157l-0.123,0.156l-0.124,0.155l-0.127,0.153l-0.129,0.151l-0.131,0.15l-0.133,0.147l-0.136,0.147l-0.138,0.144l-0.139,0.142l-0.142,0.141l-0.144,0.138l-0.146,0.137l-0.148,0.135l-0.151,0.133l-0.152,0.13l-0.155,0.129l-0.156,0.126l-0.159,0.125l-0.16,0.122l-0.163,0.119l-0.165,0.118l-0.166,0.115l-0.169,0.113l-0.171,0.111l-0.172,0.108l-0.175,0.105l-0.176,0.103l-0.178,0.101l-0.18,0.098l-0.182,0.095l-0.183,0.092l-0.186,0.09l-0.187,0.088l-0.189,0.084l-0.19,0.082l-0.192,0.078l-0.194,0.076l-0.195,0.073l-0.197,0.07l-0.197,0.068l-0.199,0.063l-0.199,0.061l-0.199,0.057l-0.2,0.054l-0.201,0.051l-0.201,0.048l-0.201,0.044l-0.201,0.041l-0.202,0.039l-0.202,0.034l-0.202,0.032l-0.202,0.029l-0.202,0.025l-0.203,0.022l-0.202,0.019l-0.202,0.017l-0.202,0.013l-0.203,0.009l-0.202,0.007l-0.201,0.004l-0.202,0.001l-0.201,-0.002l-0.201,-0.005l-0.201,-0.008l-0.2,-0.011l-0.2,-0.014l-0.199,-0.016l-0.199,-0.02l-0.198,-0.022l-0.198,-0.025l-0.198,-0.028l-0.197,-0.03l-0.196,-0.034l-0.196,-0.036l-0.194,-0.038l-0.195,-0.041l-0.193,-0.044l-0.193,-0.047l-0.193,-0.049l-0.191,-0.051l-0.191,-0.054l-0.189,-0.057l-0.19,-0.059l-0.188,-0.062l-0.187,-0.063l-0.187,-0.067l-0.185,-0.068l-0.185,-0.072l-0.184,-0.073l-0.183,-0.076l-0.182,-0.078l-0.181,-0.08l-0.18,-0.082l-0.179,-0.085l-0.179,-0.087l-0.177,-0.089l-0.176,-0.092l-0.175,-0.093l-0.174,-0.096l-0.173,-0.098l-0.172,-0.099l-0.171,-0.102l-0.17,-0.105l-0.169,-0.106l-0.167,-0.108l-0.167,-0.11l-0.165,-0.112l-0.164,-0.114l-0.163,-0.116l-0.162,-0.118l-0.161,-0.12l-0.159,-0.122l-0.158,-0.124l-0.157,-0.125l-0.156,-0.128l-0.155,-0.129l-0.153,-0.132l-0.153,-0.133l-0.15,-0.135l-0.15,-0.136l-0.148,-0.139l-0.147,-0.141l-0.146,-0.142l-0.144,-0.143l-0.143,-0.146l-0.141,-0.148l-0.141,-0.149l-0.138,-0.151l-0.138,-0.152l-0.136,-0.154l-0.135,-0.156l-0.133,-0.158l-0.131,-0.159l-0.131,-0.161l-0.129,-0.163l-0.127,-0.164l-0.126,-0.166l-0.124,-0.167l-0.123,-0.169l-0.121,-0.17l-0.12,-0.173l-0.118,-0.173l-0.116,-0.175l-0.115,-0.177l-0.113,-0.178l-0.112,-0.18l-0.11,-0.182l-0.108,-0.182l-0.107,-0.185l-0.105,-0.185l-0.103,-0.188l-0.102,-0.188l-0.1,-0.19l-0.098,-0.192l-0.096,-0.193l-0.094,-0.194l-0.093,-0.196l-0.091,-0.197l-0.089,-0.198l-0.087,-0.2l-0.086,-0.201l-0.083,-0.203l-0.082,-0.204l-0.079,-0.205l-0.078,-0.206l-0.076,-0.208l-0.074,-0.209l-0.072,-0.209l-0.069,-0.21l-0.067,-0.21l-0.065,-0.211l-0.062,-0.21l-0.06,-0.211l-0.058,-0.21l-0.056,-0.211l-0.053,-0.211l-0.051,-0.211l-0.048,-0.211l-0.047,-0.211l-0.044,-0.211l-0.042,-0.211l-0.039,-0.211l-0.038,-0.211l-0.035,-0.211l-0.033,-0.211l-0.03,-0.211l-0.029,-0.21l-0.026,-0.211l-0.024,-0.21l-0.022,-0.21l-0.019,-0.21l-0.017,-0.21l-0.016,-0.209l-0.012,-0.209l-0.011,-0.209l-0.009,-0.209l-0.006,-0.208l-0.004,-0.208l-0.002,-0.208l0,-0.208l0.002,-0.207l0.005,-0.206l0.007,-0.206l0.009,-0.206l0.011,-0.206l0.013,-0.205l0.015,-0.204l0.018,-0.204l0.019,-0.203l0.022,-0.203l0.024,-0.203l0.026,-0.201l0.028,-0.202l0.03,-0.2l0.033,-0.2l0.035,-0.2l0.036,-0.199l0.039,-0.198l0.041,-0.197l0.043,-0.197l0.045,-0.196l0.048,-0.195l0.049,-0.195l0.052,-0.193l0.054,-0.193l0.056,-0.192l0.058,-0.192l0.06,-0.19l0.062,-0.19l0.064,-0.189l0.067,-0.188l0.069,-0.186l0.07,-0.186l0.073,-0.185l0.075,-0.184l0.078,-0.183l0.079,-0.182l0.082,-0.181l0.083,-0.18l0.086,-0.179l0.088,-0.177l0.09,-0.177l0.092,-0.175l0.095,-0.174l0.096,-0.173l0.099,-0.172l0.101,-0.17l0.103,-0.169l0.105,-0.168l0.107,-0.166l0.11,-0.165l0.111,-0.164l0.114,-0.162l0.116,-0.161l0.119,-0.159l0.12,-0.158l0.122,-0.156l0.125,-0.154l0.127,-0.153l0.129,-0.151l0.131,-0.15l0.133,-0.148l0.136,-0.146l0.137,-0.144l0.14,-0.142l0.142,-0.141l0.144,-0.139l0.146,-0.136l0.148,-0.135l0.151,-0.133l0.152,-0.131l0.154,-0.128l0.157,-0.127l0.159,-0.124l0.16,-0.122l0.163,-0.12l0.164,-0.117l0.167,-0.116l0.169,-0.112l0.17,-0.111l0.173,-0.108l0.174,-0.106l0.177,-0.103l0.178,-0.1l0.18,-0.098l0.182,-0.095l0.183,-0.093l0.186,-0.09l0.187,-0.087l0.189,-0.084l0.19,-0.082l0.192,-0.079l0.194,-0.076l0.195,-0.073l0.196,-0.07l0.198,-0.067l0.199,-0.064l0.199,-0.06l0.199,-0.058l0.2,-0.054l0.201,-0.051l0.2,-0.047l0.202,-0.045l0.201,-0.041l0.202,-0.038l0.202,-0.035l0.202,-0.032l0.202,-0.028l0.202,-0.025l0.203,-0.023l0.202,-0.019l0.202,-0.016l0.202,-0.013l0.202,-0.01l0.202,-0.007l0.202,-0.004l0.202,-0.001l0.201,0.003Zm-0.356,3.998l-0.142,0.003l-0.142,0.005l-0.142,0.007l-0.142,0.009l-0.142,0.011l-0.142,0.014l-0.142,0.015l-0.141,0.018l-0.142,0.02l-0.141,0.022l-0.141,0.024l-0.141,0.027l-0.141,0.029l-0.14,0.031l-0.141,0.033l-0.14,0.036l-0.139,0.037l-0.14,0.041l-0.139,0.042l-0.139,0.045l-0.138,0.046l-0.138,0.05l-0.136,0.051l-0.136,0.053l-0.134,0.055l-0.133,0.057l-0.132,0.059l-0.131,0.061l-0.129,0.062l-0.128,0.065l-0.127,0.067l-0.126,0.068l-0.125,0.07l-0.123,0.072l-0.122,0.074l-0.121,0.076l-0.119,0.077l-0.119,0.08l-0.117,0.081l-0.116,0.082l-0.114,0.085l-0.114,0.086l-0.112,0.088l-0.11,0.089l-0.11,0.091l-0.108,0.093l-0.107,0.094l-0.105,0.096l-0.104,0.097l-0.103,0.099l-0.101,0.101l-0.101,0.102l-0.098,0.104l-0.098,0.105l-0.096,0.106l-0.095,0.108l-0.093,0.11l-0.092,0.111l-0.091,0.112l-0.089,0.114l-0.088,0.115l-0.086,0.116l-0.085,0.118l-0.084,0.119l-0.082,0.12l-0.081,0.122l-0.079,0.123l-0.078,0.124l-0.076,0.126l-0.075,0.126l-0.074,0.128l-0.072,0.129l-0.071,0.13l-0.069,0.132l-0.067,0.132l-0.067,0.134l-0.064,0.135l-0.063,0.136l-0.062,0.137l-0.06,0.138l-0.059,0.139l-0.057,0.14l-0.056,0.141l-0.054,0.142l-0.052,0.143l-0.051,0.144l-0.05,0.145l-0.048,0.146l-0.046,0.147l-0.045,0.147l-0.043,0.149l-0.042,0.149l-0.04,0.151l-0.038,0.151l-0.037,0.152l-0.035,0.152l-0.034,0.154l-0.032,0.154l-0.03,0.155l-0.029,0.155l-0.027,0.157l-0.026,0.157l-0.024,0.158l-0.022,0.158l-0.02,0.159l-0.019,0.16l-0.017,0.16l-0.016,0.161l-0.014,0.161l-0.012,0.162l-0.01,0.163l-0.009,0.163l-0.007,0.164l-0.005,0.164l-0.004,0.164l-0.002,0.165l0,0.166l0.001,0.166l0.004,0.166l0.005,0.167l0.007,0.167l0.008,0.167l0.011,0.168l0.012,0.168l0.014,0.168l0.015,0.169l0.018,0.169l0.019,0.169l0.021,0.17l0.023,0.169l0.025,0.17l0.026,0.17l0.029,0.171l0.03,0.17l0.032,0.171l0.034,0.17l0.035,0.171l0.038,0.171l0.039,0.171l0.042,0.171l0.043,0.171l0.045,0.171l0.047,0.171l0.049,0.171l0.05,0.171l0.053,0.171l0.055,0.171l0.056,0.171l0.058,0.171l0.061,0.17l0.061,0.169l0.064,0.168l0.064,0.167l0.067,0.166l0.067,0.164l0.07,0.163l0.071,0.163l0.072,0.161l0.073,0.159l0.076,0.159l0.076,0.157l0.078,0.156l0.079,0.155l0.081,0.154l0.082,0.152l0.083,0.151l0.085,0.15l0.086,0.149l0.087,0.147l0.089,0.146l0.09,0.145l0.091,0.143l0.092,0.142l0.094,0.141l0.095,0.139l0.096,0.138l0.097,0.137l0.098,0.135l0.099,0.134l0.101,0.133l0.102,0.131l0.102,0.129l0.104,0.129l0.105,0.126l0.106,0.126l0.107,0.124l0.108,0.122l0.109,0.121l0.11,0.12l0.111,0.118l0.112,0.116l0.113,0.115l0.114,0.114l0.115,0.112l0.115,0.111l0.117,0.109l0.117,0.107l0.119,0.106l0.119,0.104l0.12,0.103l0.12,0.101l0.122,0.099l0.122,0.098l0.123,0.096l0.124,0.095l0.125,0.093l0.125,0.092l0.126,0.089l0.127,0.088l0.127,0.087l0.128,0.084l0.129,0.083l0.129,0.082l0.13,0.079l0.131,0.078l0.131,0.076l0.132,0.075l0.132,0.073l0.133,0.07l0.133,0.07l0.134,0.067l0.134,0.066l0.135,0.063l0.136,0.062l0.135,0.061l0.137,0.058l0.136,0.056l0.137,0.055l0.138,0.053l0.137,0.051l0.138,0.049l0.139,0.047l0.139,0.046l0.139,0.043l0.139,0.042l0.14,0.039l0.14,0.038l0.14,0.036l0.141,0.034l0.141,0.031l0.14,0.03l0.142,0.028l0.141,0.026l0.141,0.024l0.142,0.022l0.142,0.02l0.142,0.018l0.142,0.016l0.142,0.014l0.142,0.012l0.142,0.01l0.142,0.007l0.142,0.006l0.143,0.004l0.142,0.001l0.142,-0.001l0.143,-0.002l0.142,-0.005l0.142,-0.007l0.142,-0.009l0.142,-0.012l0.142,-0.013l0.142,-0.016l0.141,-0.017l0.142,-0.02l0.141,-0.023l0.141,-0.024l0.141,-0.026l0.141,-0.029l0.14,-0.031l0.14,-0.034l0.14,-0.035l0.14,-0.038l0.139,-0.04l0.14,-0.042l0.138,-0.045l0.139,-0.047l0.138,-0.049l0.136,-0.051l0.136,-0.053l0.134,-0.055l0.133,-0.057l0.132,-0.059l0.13,-0.061l0.13,-0.063l0.128,-0.065l0.127,-0.066l0.126,-0.069l0.124,-0.07l0.124,-0.072l0.122,-0.074l0.121,-0.075l0.119,-0.078l0.119,-0.079l0.117,-0.081l0.116,-0.083l0.114,-0.084l0.113,-0.086l0.112,-0.088l0.111,-0.089l0.109,-0.091l0.109,-0.093l0.106,-0.094l0.106,-0.096l0.104,-0.098l0.103,-0.099l0.101,-0.1l0.1,-0.102l0.099,-0.104l0.098,-0.105l0.096,-0.107l0.094,-0.108l0.094,-0.109l0.092,-0.111l0.09,-0.112l0.09,-0.114l0.087,-0.115l0.087,-0.116l0.085,-0.118l0.083,-0.119l0.083,-0.121l0.08,-0.121l0.08,-0.123l0.078,-0.124l0.076,-0.126l0.075,-0.127l0.074,-0.127l0.072,-0.13l0.07,-0.13l0.069,-0.131l0.068,-0.133l0.066,-0.133l0.065,-0.135l0.063,-0.136l0.062,-0.137l0.06,-0.138l0.059,-0.139l0.057,-0.14l0.056,-0.141l0.054,-0.142l0.052,-0.143l0.051,-0.144l0.05,-0.145l0.048,-0.146l0.046,-0.147l0.045,-0.148l0.043,-0.148l0.042,-0.15l0.04,-0.15l0.038,-0.151l0.037,-0.152l0.035,-0.153l0.034,-0.153l0.032,-0.154l0.03,-0.155l0.029,-0.156l0.027,-0.156l0.025,-0.157l0.024,-0.158l0.023,-0.159l0.02,-0.159l0.019,-0.159l0.017,-0.161l0.016,-0.16l0.013,-0.162l0.013,-0.162l0.01,-0.162l0.009,-0.164l0.007,-0.163l0.005,-0.164l0.004,-0.165l0.002,-0.165l0,-0.165l-0.002,-0.166l-0.003,-0.166l-0.005,-0.167l-0.007,-0.167l-0.008,-0.168l-0.011,-0.167l-0.012,-0.168l-0.014,-0.169l-0.016,-0.168l-0.017,-0.169l-0.019,-0.17l-0.021,-0.169l-0.023,-0.17l-0.025,-0.17l-0.026,-0.17l-0.029,-0.17l-0.03,-0.17l-0.032,-0.171l-0.034,-0.171l-0.036,-0.17l-0.037,-0.171l-0.04,-0.171l-0.041,-0.171l-0.043,-0.171l-0.045,-0.172l-0.047,-0.171l-0.049,-0.171l-0.051,-0.171l-0.052,-0.171l-0.055,-0.171l-0.056,-0.171l-0.059,-0.17l-0.06,-0.171l-0.062,-0.169l-0.063,-0.168l-0.065,-0.166l-0.066,-0.166l-0.068,-0.165l-0.069,-0.163l-0.071,-0.162l-0.072,-0.161l-0.074,-0.16l-0.075,-0.158l-0.076,-0.158l-0.078,-0.156l-0.08,-0.155l-0.08,-0.153l-0.082,-0.153l-0.084,-0.151l-0.084,-0.15l-0.086,-0.148l-0.088,-0.148l-0.088,-0.146l-0.09,-0.144l-0.091,-0.144l-0.093,-0.142l-0.093,-0.14l-0.095,-0.14l-0.096,-0.138l-0.097,-0.136l-0.098,-0.136l-0.1,-0.133l-0.1,-0.133l-0.102,-0.131l-0.103,-0.13l-0.103,-0.128l-0.105,-0.127l-0.106,-0.125l-0.107,-0.124l-0.108,-0.123l-0.109,-0.121l-0.11,-0.119l-0.111,-0.118l-0.112,-0.117l-0.113,-0.115l-0.114,-0.113l-0.115,-0.112l-0.115,-0.111l-0.117,-0.109l-0.117,-0.107l-0.119,-0.106l-0.119,-0.104l-0.12,-0.103l-0.121,-0.101l-0.121,-0.1l-0.123,-0.098l-0.123,-0.096l-0.123,-0.095l-0.125,-0.093l-0.125,-0.091l-0.126,-0.09l-0.127,-0.088l-0.128,-0.086l-0.128,-0.085l-0.128,-0.083l-0.13,-0.081l-0.13,-0.08l-0.13,-0.078l-0.131,-0.076l-0.132,-0.074l-0.132,-0.073l-0.133,-0.071l-0.133,-0.069l-0.134,-0.067l-0.135,-0.066l-0.135,-0.064l-0.135,-0.062l-0.136,-0.06l-0.136,-0.058l-0.136,-0.057l-0.137,-0.055l-0.138,-0.052l-0.138,-0.051l-0.138,-0.049l-0.138,-0.048l-0.139,-0.045l-0.139,-0.044l-0.14,-0.041l-0.139,-0.04l-0.14,-0.037l-0.141,-0.036l-0.14,-0.034l-0.141,-0.032l-0.141,-0.03l-0.141,-0.028l-0.141,-0.026l-0.142,-0.024l-0.141,-0.022l-0.142,-0.02l-0.142,-0.018l-0.142,-0.016l-0.142,-0.013l-0.142,-0.012l-0.142,-0.01l-0.142,-0.008l-0.143,-0.005l-0.142,-0.004l-0.142,-0.001l-0.143,0Z" style="fill:#2b1d5a;"/><path d="M160.711,110.383c5.399,-3.142 12.933,-0.282 16.812,6.384c3.88,6.666 2.646,14.63 -2.754,17.772c-5.399,3.143 -12.933,0.282 -16.812,-6.384c-3.88,-6.666 -2.646,-14.629 2.754,-17.772Z" style="fill:#2b1d5a;"/><path d="M165.683,105.107l0.199,0.004l0.198,0.006l0.199,0.008l0.198,0.012l0.198,0.014l0.197,0.016l0.197,0.02l0.197,0.021l0.197,0.025l0.196,0.027l0.196,0.029l0.195,0.032l0.195,0.034l0.194,0.037l0.194,0.039l0.194,0.042l0.193,0.044l0.193,0.047l0.192,0.049l0.191,0.051l0.191,0.054l0.191,0.056l0.189,0.058l0.19,0.061l0.188,0.062l0.188,0.066l0.187,0.067l0.187,0.069l0.186,0.072l0.185,0.074l0.184,0.077l0.184,0.078l0.183,0.081l0.182,0.082l0.182,0.085l0.18,0.087l0.18,0.089l0.179,0.092l0.179,0.093l0.177,0.095l0.176,0.098l0.176,0.099l0.175,0.102l0.174,0.103l0.173,0.106l0.172,0.108l0.171,0.109l0.17,0.112l0.169,0.114l0.168,0.115l0.167,0.118l0.167,0.119l0.165,0.122l0.164,0.123l0.163,0.126l0.162,0.127l0.161,0.129l0.159,0.131l0.159,0.133l0.158,0.135l0.156,0.137l0.155,0.139l0.154,0.14l0.153,0.142l0.152,0.145l0.15,0.146l0.149,0.148l0.148,0.149l0.147,0.152l0.145,0.153l0.144,0.155l0.142,0.157l0.142,0.159l0.14,0.16l0.138,0.163l0.138,0.163l0.135,0.166l0.135,0.168l0.133,0.169l0.131,0.171l0.13,0.172l0.128,0.175l0.127,0.176l0.126,0.178l0.124,0.179l0.122,0.181l0.12,0.183l0.12,0.184l0.117,0.186l0.116,0.188l0.114,0.189l0.112,0.191l0.111,0.192l0.108,0.193l0.106,0.194l0.104,0.194l0.101,0.194l0.1,0.195l0.097,0.196l0.095,0.196l0.092,0.197l0.091,0.198l0.088,0.197l0.086,0.199l0.083,0.198l0.082,0.2l0.079,0.199l0.077,0.2l0.075,0.2l0.073,0.201l0.07,0.201l0.068,0.201l0.066,0.202l0.064,0.202l0.061,0.201l0.06,0.203l0.057,0.202l0.055,0.203l0.052,0.203l0.051,0.203l0.048,0.203l0.046,0.203l0.044,0.204l0.042,0.204l0.039,0.203l0.038,0.204l0.035,0.203l0.032,0.204l0.031,0.204l0.029,0.204l0.026,0.203l0.024,0.204l0.022,0.203l0.019,0.204l0.018,0.203l0.015,0.203l0.013,0.203l0.011,0.203l0.009,0.203l0.006,0.203l0.004,0.202l0.002,0.202l0,0.202l-0.002,0.202l-0.005,0.201l-0.007,0.201l-0.009,0.201l-0.011,0.2l-0.014,0.2l-0.016,0.2l-0.018,0.199l-0.02,0.199l-0.023,0.198l-0.025,0.199l-0.027,0.197l-0.029,0.197l-0.032,0.197l-0.034,0.196l-0.036,0.195l-0.038,0.195l-0.041,0.195l-0.043,0.193l-0.046,0.194l-0.047,0.192l-0.05,0.192l-0.053,0.191l-0.054,0.191l-0.057,0.189l-0.06,0.189l-0.061,0.188l-0.064,0.188l-0.067,0.186l-0.069,0.186l-0.071,0.185l-0.073,0.184l-0.076,0.182l-0.078,0.182l-0.081,0.182l-0.083,0.179l-0.086,0.179l-0.088,0.178l-0.09,0.177l-0.093,0.175l-0.095,0.175l-0.098,0.173l-0.1,0.171l-0.103,0.171l-0.105,0.169l-0.107,0.168l-0.11,0.167l-0.112,0.165l-0.115,0.164l-0.117,0.162l-0.12,0.16l-0.122,0.159l-0.125,0.158l-0.127,0.155l-0.129,0.155l-0.132,0.152l-0.134,0.151l-0.137,0.148l-0.139,0.147l-0.142,0.145l-0.144,0.143l-0.146,0.141l-0.149,0.139l-0.151,0.137l-0.153,0.135l-0.156,0.133l-0.158,0.13l-0.16,0.129l-0.162,0.126l-0.165,0.123l-0.167,0.122l-0.169,0.119l-0.171,0.116l-0.174,0.114l-0.175,0.112l-0.178,0.109l-0.18,0.106l-0.181,0.104l-0.183,0.101l-0.183,0.097l-0.185,0.095l-0.186,0.091l-0.187,0.088l-0.188,0.085l-0.189,0.083l-0.19,0.079l-0.191,0.075l-0.191,0.073l-0.192,0.07l-0.193,0.067l-0.194,0.063l-0.194,0.061l-0.195,0.058l-0.196,0.054l-0.196,0.051l-0.196,0.049l-0.197,0.045l-0.197,0.043l-0.198,0.039l-0.198,0.037l-0.198,0.033l-0.198,0.031l-0.199,0.027l-0.199,0.025l-0.199,0.022l-0.199,0.019l-0.199,0.016l-0.199,0.013l-0.199,0.011l-0.199,0.007l-0.199,0.005l-0.199,0.002l-0.199,0l-0.198,-0.003l-0.199,-0.006l-0.198,-0.009l-0.198,-0.011l-0.198,-0.014l-0.197,-0.017l-0.197,-0.019l-0.197,-0.022l-0.197,-0.024l-0.196,-0.027l-0.196,-0.03l-0.195,-0.032l-0.195,-0.034l-0.194,-0.037l-0.195,-0.039l-0.193,-0.042l-0.193,-0.044l-0.193,-0.047l-0.192,-0.049l-0.192,-0.051l-0.19,-0.053l-0.191,-0.056l-0.19,-0.059l-0.189,-0.06l-0.188,-0.063l-0.188,-0.065l-0.188,-0.068l-0.186,-0.069l-0.186,-0.072l-0.185,-0.074l-0.185,-0.076l-0.183,-0.079l-0.183,-0.08l-0.182,-0.083l-0.182,-0.085l-0.181,-0.087l-0.179,-0.089l-0.18,-0.091l-0.178,-0.093l-0.177,-0.096l-0.177,-0.097l-0.175,-0.1l-0.175,-0.101l-0.174,-0.104l-0.173,-0.106l-0.172,-0.107l-0.171,-0.11l-0.17,-0.112l-0.169,-0.113l-0.168,-0.116l-0.168,-0.118l-0.166,-0.119l-0.165,-0.121l-0.164,-0.124l-0.163,-0.125l-0.162,-0.128l-0.161,-0.129l-0.16,-0.131l-0.158,-0.133l-0.158,-0.135l-0.156,-0.137l-0.155,-0.138l-0.154,-0.141l-0.153,-0.142l-0.152,-0.144l-0.15,-0.146l-0.149,-0.148l-0.148,-0.15l-0.147,-0.151l-0.145,-0.154l-0.144,-0.155l-0.143,-0.157l-0.141,-0.158l-0.14,-0.161l-0.139,-0.162l-0.137,-0.164l-0.135,-0.166l-0.135,-0.167l-0.133,-0.169l-0.131,-0.171l-0.13,-0.173l-0.129,-0.175l-0.126,-0.175l-0.126,-0.178l-0.124,-0.18l-0.122,-0.181l-0.121,-0.183l-0.119,-0.184l-0.117,-0.186l-0.116,-0.188l-0.114,-0.189l-0.113,-0.191l-0.11,-0.192l-0.108,-0.193l-0.106,-0.193l-0.104,-0.194l-0.102,-0.195l-0.099,-0.195l-0.097,-0.196l-0.095,-0.196l-0.092,-0.197l-0.091,-0.197l-0.088,-0.198l-0.086,-0.198l-0.084,-0.199l-0.081,-0.199l-0.079,-0.2l-0.077,-0.2l-0.075,-0.2l-0.073,-0.201l-0.07,-0.201l-0.068,-0.201l-0.066,-0.201l-0.064,-0.202l-0.061,-0.202l-0.06,-0.203l-0.057,-0.202l-0.055,-0.203l-0.052,-0.203l-0.051,-0.203l-0.048,-0.203l-0.046,-0.203l-0.044,-0.204l-0.042,-0.203l-0.039,-0.204l-0.038,-0.203l-0.035,-0.204l-0.033,-0.204l-0.03,-0.203l-0.029,-0.204l-0.026,-0.204l-0.024,-0.203l-0.022,-0.204l-0.02,-0.203l-0.017,-0.204l-0.015,-0.203l-0.013,-0.203l-0.011,-0.203l-0.009,-0.203l-0.006,-0.202l-0.004,-0.202l-0.002,-0.203l0,-0.202l0.002,-0.201l0.005,-0.201l0.007,-0.202l0.009,-0.2l0.011,-0.201l0.014,-0.2l0.016,-0.2l0.018,-0.199l0.02,-0.199l0.023,-0.198l0.025,-0.198l0.027,-0.198l0.029,-0.197l0.032,-0.197l0.034,-0.196l0.036,-0.195l0.038,-0.195l0.041,-0.194l0.043,-0.194l0.046,-0.193l0.047,-0.193l0.05,-0.192l0.053,-0.191l0.054,-0.19l0.057,-0.19l0.06,-0.189l0.061,-0.188l0.064,-0.187l0.067,-0.187l0.068,-0.186l0.072,-0.184l0.073,-0.184l0.076,-0.183l0.078,-0.182l0.081,-0.181l0.083,-0.18l0.086,-0.179l0.088,-0.178l0.09,-0.176l0.093,-0.176l0.095,-0.174l0.098,-0.173l0.1,-0.172l0.102,-0.171l0.105,-0.169l0.108,-0.168l0.11,-0.166l0.112,-0.165l0.115,-0.164l0.117,-0.162l0.12,-0.161l0.122,-0.159l0.125,-0.157l0.127,-0.156l0.129,-0.154l0.132,-0.153l0.134,-0.15l0.137,-0.149l0.139,-0.147l0.142,-0.145l0.144,-0.143l0.146,-0.141l0.149,-0.139l0.15,-0.137l0.154,-0.135l0.156,-0.132l0.157,-0.131l0.161,-0.128l0.162,-0.126l0.165,-0.124l0.167,-0.121l0.169,-0.119l0.171,-0.117l0.174,-0.114l0.175,-0.112l0.178,-0.109l0.18,-0.106l0.181,-0.104l0.182,-0.1l0.184,-0.098l0.185,-0.094l0.186,-0.092l0.187,-0.088l0.188,-0.085l0.189,-0.082l0.19,-0.079l0.19,-0.076l0.192,-0.073l0.192,-0.07l0.193,-0.066l0.194,-0.064l0.194,-0.061l0.195,-0.057l0.196,-0.055l0.195,-0.051l0.197,-0.049l0.197,-0.045l0.197,-0.042l0.198,-0.04l0.198,-0.036l0.198,-0.034l0.198,-0.03l0.199,-0.028l0.199,-0.025l0.198,-0.022l0.2,-0.019l0.199,-0.016l0.199,-0.013l0.199,-0.01l0.199,-0.008l0.199,-0.005l0.199,-0.002l0.198,0Zm-0.326,4.001l-0.144,0.004l-0.143,0.006l-0.143,0.007l-0.143,0.01l-0.142,0.011l-0.142,0.014l-0.142,0.015l-0.141,0.018l-0.142,0.019l-0.14,0.022l-0.141,0.024l-0.14,0.026l-0.139,0.027l-0.139,0.03l-0.139,0.032l-0.138,0.034l-0.138,0.037l-0.137,0.038l-0.137,0.04l-0.136,0.043l-0.135,0.044l-0.135,0.047l-0.135,0.049l-0.134,0.05l-0.133,0.054l-0.132,0.055l-0.132,0.057l-0.132,0.06l-0.13,0.061l-0.13,0.064l-0.129,0.066l-0.129,0.068l-0.127,0.071l-0.127,0.072l-0.126,0.075l-0.124,0.076l-0.123,0.078l-0.121,0.08l-0.12,0.081l-0.118,0.083l-0.117,0.085l-0.115,0.086l-0.113,0.088l-0.112,0.09l-0.111,0.091l-0.108,0.093l-0.108,0.094l-0.105,0.096l-0.105,0.098l-0.102,0.099l-0.101,0.1l-0.1,0.102l-0.097,0.103l-0.097,0.105l-0.094,0.106l-0.094,0.108l-0.091,0.109l-0.09,0.11l-0.088,0.112l-0.087,0.113l-0.085,0.114l-0.084,0.115l-0.082,0.117l-0.08,0.118l-0.079,0.12l-0.077,0.12l-0.076,0.122l-0.074,0.123l-0.072,0.124l-0.071,0.125l-0.069,0.127l-0.067,0.127l-0.066,0.129l-0.064,0.13l-0.063,0.131l-0.061,0.131l-0.059,0.133l-0.058,0.134l-0.056,0.135l-0.054,0.136l-0.053,0.137l-0.051,0.138l-0.049,0.138l-0.048,0.14l-0.046,0.14l-0.044,0.142l-0.043,0.142l-0.041,0.143l-0.039,0.144l-0.038,0.145l-0.036,0.145l-0.034,0.146l-0.033,0.147l-0.031,0.148l-0.029,0.148l-0.028,0.149l-0.026,0.15l-0.024,0.151l-0.023,0.151l-0.02,0.152l-0.02,0.152l-0.017,0.153l-0.016,0.153l-0.014,0.154l-0.012,0.155l-0.01,0.155l-0.009,0.156l-0.007,0.156l-0.006,0.157l-0.003,0.157l-0.002,0.157l0,0.158l0.001,0.158l0.003,0.159l0.005,0.159l0.007,0.159l0.009,0.16l0.01,0.16l0.012,0.161l0.014,0.16l0.015,0.161l0.018,0.161l0.019,0.162l0.021,0.161l0.022,0.162l0.025,0.162l0.026,0.162l0.028,0.162l0.029,0.162l0.032,0.163l0.033,0.162l0.035,0.163l0.037,0.163l0.039,0.162l0.04,0.163l0.043,0.163l0.044,0.162l0.045,0.163l0.048,0.162l0.05,0.163l0.051,0.162l0.053,0.163l0.055,0.162l0.057,0.162l0.058,0.162l0.061,0.161l0.062,0.162l0.064,0.161l0.066,0.161l0.068,0.161l0.069,0.161l0.072,0.16l0.073,0.16l0.075,0.159l0.077,0.16l0.079,0.159l0.08,0.158l0.083,0.158l0.084,0.158l0.087,0.158l0.088,0.156l0.09,0.157l0.091,0.155l0.093,0.155l0.094,0.152l0.096,0.152l0.097,0.15l0.098,0.148l0.099,0.147l0.1,0.146l0.102,0.144l0.103,0.143l0.104,0.141l0.105,0.14l0.107,0.138l0.107,0.137l0.109,0.135l0.109,0.134l0.111,0.132l0.112,0.131l0.113,0.13l0.114,0.128l0.115,0.126l0.115,0.125l0.117,0.123l0.118,0.122l0.119,0.12l0.12,0.119l0.12,0.117l0.122,0.115l0.122,0.114l0.123,0.113l0.124,0.11l0.125,0.11l0.126,0.107l0.126,0.106l0.127,0.105l0.128,0.103l0.129,0.101l0.13,0.099l0.13,0.098l0.131,0.096l0.131,0.095l0.132,0.093l0.133,0.091l0.134,0.09l0.134,0.088l0.134,0.086l0.136,0.085l0.135,0.083l0.137,0.081l0.137,0.08l0.137,0.078l0.138,0.076l0.138,0.074l0.139,0.073l0.139,0.071l0.14,0.069l0.14,0.067l0.141,0.066l0.141,0.064l0.141,0.062l0.141,0.061l0.142,0.058l0.142,0.057l0.143,0.055l0.143,0.054l0.143,0.051l0.143,0.05l0.144,0.048l0.143,0.046l0.144,0.044l0.144,0.042l0.145,0.041l0.144,0.038l0.145,0.037l0.144,0.035l0.145,0.033l0.145,0.031l0.145,0.03l0.145,0.027l0.145,0.026l0.145,0.023l0.145,0.022l0.145,0.02l0.145,0.018l0.144,0.016l0.145,0.014l0.145,0.012l0.145,0.011l0.144,0.008l0.145,0.006l0.144,0.005l0.144,0.002l0.144,0l0.143,-0.001l0.144,-0.004l0.143,-0.005l0.143,-0.008l0.143,-0.009l0.142,-0.012l0.142,-0.013l0.142,-0.016l0.141,-0.018l0.141,-0.019l0.141,-0.022l0.14,-0.024l0.14,-0.025l0.14,-0.028l0.139,-0.03l0.139,-0.032l0.138,-0.034l0.138,-0.036l0.137,-0.038l0.136,-0.041l0.137,-0.042l0.135,-0.045l0.135,-0.046l0.135,-0.049l0.133,-0.051l0.134,-0.053l0.132,-0.055l0.132,-0.058l0.131,-0.059l0.131,-0.062l0.13,-0.064l0.129,-0.066l0.129,-0.068l0.127,-0.07l0.127,-0.073l0.126,-0.074l0.124,-0.077l0.123,-0.078l0.121,-0.079l0.12,-0.082l0.118,-0.083l0.117,-0.085l0.115,-0.086l0.113,-0.088l0.112,-0.09l0.11,-0.091l0.109,-0.093l0.108,-0.094l0.105,-0.096l0.104,-0.097l0.103,-0.099l0.101,-0.101l0.099,-0.102l0.098,-0.103l0.097,-0.105l0.094,-0.106l0.093,-0.107l0.092,-0.109l0.09,-0.111l0.088,-0.111l0.087,-0.113l0.085,-0.114l0.084,-0.116l0.082,-0.117l0.08,-0.118l0.079,-0.119l0.077,-0.121l0.076,-0.122l0.074,-0.123l0.072,-0.124l0.071,-0.125l0.069,-0.127l0.067,-0.127l0.066,-0.129l0.064,-0.13l0.063,-0.13l0.06,-0.132l0.06,-0.133l0.057,-0.134l0.056,-0.135l0.055,-0.136l0.052,-0.136l0.051,-0.138l0.05,-0.139l0.047,-0.14l0.047,-0.14l0.044,-0.141l0.043,-0.143l0.041,-0.143l0.039,-0.144l0.038,-0.144l0.036,-0.146l0.034,-0.146l0.033,-0.147l0.031,-0.148l0.029,-0.148l0.028,-0.149l0.026,-0.15l0.024,-0.15l0.022,-0.152l0.021,-0.151l0.019,-0.153l0.018,-0.153l0.015,-0.153l0.014,-0.154l0.013,-0.155l0.01,-0.155l0.009,-0.156l0.007,-0.156l0.006,-0.156l0.003,-0.157l0.002,-0.158l0,-0.158l-0.001,-0.158l-0.004,-0.159l-0.005,-0.159l-0.006,-0.159l-0.009,-0.16l-0.01,-0.16l-0.012,-0.16l-0.014,-0.161l-0.016,-0.161l-0.017,-0.161l-0.019,-0.161l-0.021,-0.162l-0.022,-0.162l-0.025,-0.161l-0.026,-0.163l-0.028,-0.162l-0.03,-0.162l-0.031,-0.162l-0.033,-0.163l-0.035,-0.163l-0.037,-0.162l-0.039,-0.163l-0.04,-0.163l-0.043,-0.162l-0.044,-0.163l-0.046,-0.162l-0.047,-0.163l-0.05,-0.163l-0.051,-0.162l-0.053,-0.162l-0.055,-0.162l-0.057,-0.162l-0.058,-0.162l-0.061,-0.162l-0.062,-0.162l-0.064,-0.161l-0.066,-0.161l-0.068,-0.161l-0.069,-0.16l-0.072,-0.16l-0.073,-0.16l-0.075,-0.16l-0.077,-0.159l-0.079,-0.159l-0.081,-0.159l-0.082,-0.158l-0.084,-0.158l-0.087,-0.157l-0.088,-0.157l-0.09,-0.157l-0.091,-0.155l-0.093,-0.154l-0.095,-0.153l-0.095,-0.151l-0.097,-0.15l-0.098,-0.149l-0.099,-0.147l-0.101,-0.145l-0.101,-0.145l-0.103,-0.142l-0.104,-0.142l-0.106,-0.139l-0.106,-0.139l-0.107,-0.136l-0.109,-0.136l-0.11,-0.134l-0.11,-0.132l-0.112,-0.131l-0.113,-0.129l-0.114,-0.128l-0.115,-0.127l-0.116,-0.124l-0.117,-0.124l-0.117,-0.121l-0.119,-0.121l-0.12,-0.118l-0.12,-0.117l-0.122,-0.116l-0.122,-0.114l-0.123,-0.112l-0.124,-0.111l-0.125,-0.109l-0.126,-0.108l-0.126,-0.106l-0.128,-0.104l-0.128,-0.103l-0.128,-0.101l-0.13,-0.1l-0.13,-0.098l-0.131,-0.096l-0.131,-0.095l-0.133,-0.093l-0.132,-0.091l-0.134,-0.09l-0.134,-0.088l-0.135,-0.086l-0.135,-0.085l-0.136,-0.083l-0.136,-0.081l-0.137,-0.079l-0.137,-0.078l-0.138,-0.076l-0.138,-0.075l-0.139,-0.073l-0.14,-0.07l-0.139,-0.07l-0.14,-0.067l-0.141,-0.066l-0.141,-0.064l-0.141,-0.062l-0.142,-0.06l-0.141,-0.059l-0.143,-0.057l-0.142,-0.055l-0.143,-0.053l-0.143,-0.052l-0.143,-0.049l-0.144,-0.048l-0.144,-0.046l-0.143,-0.044l-0.145,-0.043l-0.144,-0.04l-0.144,-0.039l-0.145,-0.037l-0.144,-0.035l-0.145,-0.033l-0.145,-0.031l-0.145,-0.029l-0.145,-0.028l-0.145,-0.025l-0.145,-0.024l-0.145,-0.022l-0.145,-0.02l-0.145,-0.018l-0.145,-0.016l-0.144,-0.014l-0.145,-0.012l-0.145,-0.01l-0.144,-0.009l-0.145,-0.006l-0.144,-0.004l-0.144,-0.003l-0.144,0l-0.143,0.001Z" style="fill:#2b1d5a;"/><path d="M149.091,208.189c0,0 25.595,18.267 30.899,-12.621" style="fill:none;stroke:#000;stroke-width:4px;"/><path d="M67.386,67.687c0,0 -98.836,40.326 -34.541,195.957c35.538,86.021 2.325,120.563 -10.628,140.159" style="fill:none;stroke:#000;stroke-width:4px;"/><path d="M118.363,39.806c-0.164,0 71.29,-77.286 138.334,52.476c20.592,39.856 40.52,55.798 50.484,38.195" style="fill:none;stroke:#000;stroke-width:4px;"/><path d="M165.365,319.452c0,0 -8.84,41.102 29.56,87.351c9.668,11.644 5.978,41.848 -19.264,89.343" style="fill:none;stroke:#000;stroke-width:4px;"/><path d="M260.686,388.414c4.956,-10.002 48.807,90.156 48.824,158.548c0.006,25.628 30.888,17.603 35.87,13.949" style="fill:none;stroke:#000;stroke-width:4px;"/><path d="M266.269,385.062c0,0 -32.817,56.946 30.121,67.242c62.939,10.296 29.51,44.917 92.499,42.513" style="fill:none;stroke:#000;stroke-width:4px;"/></svg>