<?xml version="1.0" encoding="UTF-8" standalone="no"?><!DOCTYPE svg PUBLIC "-//W3C//DTD SVG 1.1//EN" "http://www.w3.org/Graphics/SVG/1.1/DTD/svg11.dtd"><svg width="100%" height="100%" viewBox="0 0 800 600" version="1.1" xmlns="http://www.w3.org/2000/svg" xmlns:xlink="http://www.w3.org/1999/xlink" xml:space="preserve" xmlns:serif="http://www.serif.com/" style="fill-rule:evenodd;clip-rule:evenodd;stroke-linecap:round;stroke-linejoin:round;stroke-miterlimit:1.5;"><g><g id="heart"><path d="M395.68,281.903c0,0 -44.789,-41.009 -91.732,-36.747c-22.612,2.053 -52.572,10.805 -65.287,46.919c-26.905,76.418 66.048,111.616 81.093,116.593c15.045,4.976 71.659,15.183 85.068,30.291" style="fill:#c51300;stroke:#000;stroke-width:4px;"/><path d="M394.957,281.809c0,0 39.65,-45.996 86.768,-47.29c22.697,-0.624 53.478,4.54 70.357,38.907c35.714,72.719 -52.449,118.615 -66.804,125.328c-14.354,6.713 -69.373,23.514 -80.911,40.096" style="fill:#c51300;stroke:#000;stroke-width:4px;"/></g><g id="holes"><path d="M346.632,296.174c8.494,9.598 11.975,20.413 7.768,24.136c-4.207,3.723 -14.518,-1.046 -23.013,-10.644c-8.494,-9.598 -11.974,-20.413 -7.768,-24.136c4.207,-3.723 14.519,1.046 23.013,10.644Z" style="fill:#333;stroke:#000;stroke-width:4px;"/><path d="M435.098,341.974c6.979,3.664 11.343,9.122 9.737,12.181c-1.606,3.059 -8.576,2.569 -15.556,-1.095c-6.98,-3.663 -11.343,-9.121 -9.738,-12.181c1.606,-3.059 8.577,-2.569 15.557,1.095Z" style="fill:#333;stroke:#000;stroke-width:4px;"/><path d="M518.134,365.949c-6.278,7.843 -14.166,11.977 -17.603,9.226c-3.438,-2.752 -1.133,-11.354 5.145,-19.197c6.278,-7.844 14.166,-11.978 17.604,-9.226c3.438,2.751 1.132,11.353 -5.146,19.197Z" style="fill:#333;stroke:#000;stroke-width:4px;"/></g><g id="worm"><path d="M445.148,164.03c0,0 -17.876,-35.547 -64.554,-3.521c-51.738,35.497 -20.381,90.483 -27.342,106.597c-6.961,16.115 -26.453,33.25 -26.453,33.25c0,0 0.723,12.72 15.143,14.687c14.42,1.966 28.338,-38.207 29.815,-42.487c1.476,-4.28 2.954,-65.451 23.382,-68.537c20.427,-3.087 56.275,-2.957 50.009,-39.989Z" style="fill:#00b38d;stroke:#000;stroke-width:4px;"/></g><g id="wormbody"><path d="M478.108,206.562c0,0 -26.949,-2.752 -35.65,91.144c-1.791,19.329 -16.139,48.899 -16.139,48.899c0,0 -1.514,7.86 6.864,8.209c8.377,0.35 18.161,-27.173 21.214,-65.181c3.054,-38.008 11.711,-59.378 19.937,-62.907c8.227,-3.528 4.847,2.373 8.798,5.313c3.951,2.94 12.555,0.009 15.238,0.614c2.682,0.604 -4.324,-24.038 -20.262,-26.091Z" style="fill:#00b38d;stroke:#000;stroke-width:4px;"/><g id="worm-tail" serif:id="worm tail"><path d="M491.161,315.852c0,0 -45.055,97.828 -1.529,97.805c47.671,-0.026 30.426,-49.277 30.106,-54.018c-0.986,-14.589 -13.286,-7.644 -13.042,-0.554c0.17,4.926 3.776,6.053 4.782,15.607c0.846,8.038 -18.783,40.065 -18.418,6.679c0.465,-42.487 0.124,-33.543 -1.899,-65.519" style="fill:#00b38d;stroke:#000;stroke-width:4px;"/></g></g><g id="face"><path d="M413.744,168.727c0.64,0.144 1.03,0.834 0.87,1.541c-0.159,0.707 -0.807,1.163 -1.447,1.019c-0.639,-0.144 -1.029,-0.834 -0.87,-1.541c0.16,-0.707 0.808,-1.163 1.447,-1.019Z" style="stroke:#000;stroke-width:4px;"/><path d="M413.744,168.727c0.64,0.144 1.03,0.834 0.87,1.541c-0.159,0.707 -0.807,1.163 -1.447,1.019c-0.639,-0.144 -1.029,-0.834 -0.87,-1.541c0.16,-0.707 0.808,-1.163 1.447,-1.019Z" style="stroke:#000;stroke-width:4px;"/><path d="M434.879,164.774c0.64,0.144 1.03,0.835 0.87,1.542c-0.159,0.706 -0.807,1.163 -1.446,1.019c-0.64,-0.144 -1.03,-0.835 -0.871,-1.541c0.16,-0.707 0.808,-1.164 1.447,-1.02Z" style="stroke:#000;stroke-width:4px;"/><path d="M421.765,173.224c0,0 3.202,3.796 5.739,-1.398" style="fill:none;stroke:#000;stroke-width:3px;"/></g></g></svg>