<?xml version="1.0" encoding="UTF-8" standalone="no"?><!DOCTYPE svg PUBLIC "-//W3C//DTD SVG 1.1//EN" "http://www.w3.org/Graphics/SVG/1.1/DTD/svg11.dtd"><svg width="25%" height="25%" viewBox="0 0 700 570" version="1.1" xmlns="http://www.w3.org/2000/svg" xmlns:xlink="http://www.w3.org/1999/xlink" xml:space="preserve" xmlns:serif="http://www.serif.com/" style="fill-rule:evenodd;clip-rule:evenodd;stroke-linecap:round;stroke-linejoin:round;stroke-miterlimit:1.5;"><g><g id="heart"><path d="M334.543,259.776c0,0 -84.008,-76.917 -172.055,-68.924c-42.413,3.851 -98.606,20.266 -122.455,88.004c-50.463,143.332 123.882,209.349 152.101,218.684c28.219,9.334 134.405,28.479 159.557,56.816" style="fill:#c51300;stroke:#000;stroke-width:4px;"/><path d="M333.186,259.6c0,0 74.369,-86.272 162.745,-88.699c42.571,-1.169 100.306,8.516 131.963,72.975c66.987,136.395 -98.374,222.478 -125.298,235.069c-26.924,12.592 -130.118,44.105 -151.759,75.205" style="fill:#c51300;stroke:#000;stroke-width:4px;"/></g><g id="holes"><path d="M242.547,286.544c15.932,18.002 22.46,38.286 14.57,45.27c-7.891,6.983 -27.231,-1.963 -43.163,-19.965c-15.932,-18.002 -22.461,-38.287 -14.57,-45.27c7.89,-6.983 27.231,1.963 43.163,19.965Z" style="fill:#333;stroke:#000;stroke-width:4px;"/><path d="M408.476,372.447c13.091,6.872 21.275,17.109 18.263,22.847c-3.012,5.739 -16.086,4.819 -29.178,-2.053c-13.091,-6.871 -21.275,-17.109 -18.263,-22.847c3.012,-5.738 16.086,-4.818 29.178,2.053Z" style="fill:#333;stroke:#000;stroke-width:4px;"/><path d="M564.222,417.415c-11.775,14.712 -26.57,22.465 -33.018,17.304c-6.449,-5.161 -2.124,-21.295 9.651,-36.006c11.775,-14.712 26.57,-22.465 33.018,-17.304c6.448,5.161 2.123,21.295 -9.651,36.006Z" style="fill:#333;stroke:#000;stroke-width:4px;"/></g><g id="worm"><path d="M427.326,38.691c0,0 -33.528,-66.673 -121.079,-6.605c-97.041,66.579 -38.227,169.713 -51.284,199.937c-13.056,30.224 -49.616,62.365 -49.616,62.365c0,0 1.356,23.857 28.403,27.546c27.047,3.689 53.152,-71.662 55.922,-79.69c2.769,-8.028 5.541,-122.761 43.855,-128.55c38.315,-5.79 105.552,-5.545 93.799,-75.003Z" style="fill:#00b38d;stroke:#000;stroke-width:4px;"/></g><g id="wormbody"><path d="M489.146,118.465c0,0 -50.545,-5.162 -66.865,170.953c-3.359,36.253 -30.271,91.715 -30.271,91.715c0,0 -2.84,14.742 12.874,15.397c15.714,0.656 34.065,-50.967 39.791,-122.256c5.727,-71.289 21.965,-111.371 37.395,-117.989c15.429,-6.618 9.091,4.451 16.5,9.965c7.41,5.514 23.549,0.017 28.581,1.151c5.032,1.133 -8.11,-45.086 -38.005,-48.936Z" style="fill:#00b38d;stroke:#000;stroke-width:4px;"/><g id="worm-tail" serif:id="worm tail"><path d="M513.63,323.452c0,0 -84.506,183.489 -2.868,183.445c89.413,-0.048 57.068,-92.424 56.467,-101.317c-1.849,-27.362 -24.918,-14.337 -24.461,-1.039c0.319,9.24 7.082,11.353 8.969,29.273c1.588,15.076 -35.229,75.146 -34.544,12.527c0.871,-79.689 0.232,-62.914 -3.563,-122.889" style="fill:#00b38d;stroke:#000;stroke-width:4px;"/></g></g><g id="face"><path d="M368.425,47.499c1.199,0.27 1.93,1.566 1.632,2.891c-0.299,1.326 -1.515,2.182 -2.714,1.912c-1.199,-0.27 -1.931,-1.565 -1.632,-2.891c0.298,-1.325 1.515,-2.182 2.714,-1.912Z" style="stroke:#000;stroke-width:4px;"/><path d="M368.425,47.499c1.199,0.27 1.93,1.566 1.632,2.891c-0.299,1.326 -1.515,2.182 -2.714,1.912c-1.199,-0.27 -1.931,-1.565 -1.632,-2.891c0.298,-1.325 1.515,-2.182 2.714,-1.912Z" style="stroke:#000;stroke-width:4px;"/><path d="M408.066,40.086c1.2,0.27 1.931,1.565 1.632,2.891c-0.298,1.325 -1.514,2.182 -2.714,1.912c-1.199,-0.27 -1.93,-1.565 -1.631,-2.891c0.298,-1.325 1.514,-2.182 2.713,-1.912Z" style="stroke:#000;stroke-width:4px;"/><path d="M383.468,55.934c0,0 6.006,7.121 10.764,-2.622" style="fill:none;stroke:#000;stroke-width:3px;"/></g></g></svg>