<?xml version="1.0" encoding="UTF-8" standalone="no"?><!DOCTYPE svg PUBLIC "-//W3C//DTD SVG 1.1//EN" "http://www.w3.org/Graphics/SVG/1.1/DTD/svg11.dtd"><svg width="18%" height="18%" viewBox="0 0 365 585" version="1.1" xmlns="http://www.w3.org/2000/svg" xmlns:xlink="http://www.w3.org/1999/xlink" xml:space="preserve" xmlns:serif="http://www.serif.com/" style="fill-rule:evenodd;clip-rule:evenodd;stroke-linecap:round;stroke-linejoin:round;stroke-miterlimit:1.5;"><path d="M260.219,5.178c-7.227,1.117 -202.631,28.018 -204.287,178.203c-1.823,165.318 255.711,132.422 187.42,282.666c-55.718,122.583 -220.602,40.556 -180.661,-84.185c39.942,-124.742 -27.67,-51.357 -41.785,-6.145c-17.585,56.324 -58.991,194.794 114.295,204.625c173.287,9.832 183.119,-129.043 175.745,-183.118c-7.374,-54.075 -57.148,-107.536 -97.704,-123.513c-40.557,-15.977 -135.602,-88.428 -23.351,-146.863c37.305,-19.42 110.082,56.182 164.069,-41.171c26.788,-48.306 -22.183,-91.559 -93.741,-80.499Z" style="fill:#ffc517;fill-opacity:0.639216;stroke:#000;stroke-width:4px;"/><ellipse cx="255.159" cy="82.078" rx="3.555" ry="3.687" style="stroke:#000;stroke-width:4px;"/><ellipse cx="318.364" cy="82.868" rx="3.555" ry="3.687" style="stroke:#000;stroke-width:4px;"/><path d="M277.676,92.612c0,0 7.637,13.431 15.274,-1.317" style="fill:none;stroke:#000;stroke-width:2px;"/></svg>