<?xml version="1.0" encoding="UTF-8" standalone="no"?><!DOCTYPE svg PUBLIC "-//W3C//DTD SVG 1.1//EN" "http://www.w3.org/Graphics/SVG/1.1/DTD/svg11.dtd"><svg width="100%" height="100%" viewBox="0 0 800 600" version="1.1" xmlns="http://www.w3.org/2000/svg" xmlns:xlink="http://www.w3.org/1999/xlink" xml:space="preserve" xmlns:serif="http://www.serif.com/" style="fill-rule:evenodd;clip-rule:evenodd;stroke-linecap:round;stroke-linejoin:round;stroke-miterlimit:1.5;"><g id="worm"><path d="M452.816,140.097c-3.92,0.606 -109.918,15.198 -110.816,96.667c-0.989,89.677 138.711,71.833 101.667,153.333c-30.225,66.496 -119.667,22 -98,-45.667c21.666,-67.666 -15.01,-27.858 -22.667,-3.333c-9.539,30.553 -32,105.667 62,111c94,5.333 99.333,-70 95.333,-99.333c-4,-29.334 -31,-58.334 -53,-67c-22,-8.667 -73.557,-47.969 -12.666,-79.667c20.236,-10.534 59.714,30.476 89,-22.333c14.531,-26.204 -12.034,-49.667 -50.851,-43.667Z" style="fill:#ffc517;fill-opacity:0.639216;stroke:#000;stroke-width:4px;"/></g><g id="face"><ellipse cx="450.071" cy="181.811" rx="1.929" ry="2" style="fill:#ebebeb;stroke:#000;stroke-width:4px;"/><ellipse cx="484.357" cy="182.24" rx="1.929" ry="2" style="fill:#ebebeb;stroke:#000;stroke-width:4px;"/><path d="M462.286,187.526c0,0 4.143,7.285 8.285,-0.715" style="fill:none;stroke:#000;stroke-width:2px;"/></g></svg>